<svg id="visual" viewBox="0 0 2880 1440" width="2880" height="1440" xmlns="http://www.w3.org/2000/svg" xmlns:xlink="http://www.w3.org/1999/xlink" version="1.1"><rect x="0" y="0" width="2880" height="1440" fill="#002233"></rect><path d="M0 1087L53.3 1093.7C106.7 1100.3 213.3 1113.7 320 1064.7C426.7 1015.7 533.3 904.3 640 858C746.7 811.7 853.3 830.3 960 887.3C1066.7 944.3 1173.3 1039.7 1280 1058.7C1386.7 1077.7 1493.3 1020.3 1600 971.2C1706.7 922 1813.3 881 1920 911.3C2026.7 941.7 2133.3 1043.3 2240 1063C2346.7 1082.7 2453.3 1020.3 2560 971.7C2666.7 923 2773.3 888 2826.7 870.5L2880 853L2880 1441L2826.7 1441C2773.3 1441 2666.7 1441 2560 1441C2453.3 1441 2346.7 1441 2240 1441C2133.3 1441 2026.7 1441 1920 1441C1813.3 1441 1706.7 1441 1600 1441C1493.3 1441 1386.7 1441 1280 1441C1173.3 1441 1066.7 1441 960 1441C853.3 1441 746.7 1441 640 1441C533.3 1441 426.7 1441 320 1441C213.3 1441 106.7 1441 53.3 1441L0 1441Z" fill="#0066FF" stroke-linecap="round" stroke-linejoin="miter"></path></svg>