<svg id="visual" viewBox="0 0 2880 1440" width="2880" height="1440" xmlns="http://www.w3.org/2000/svg" xmlns:xlink="http://www.w3.org/1999/xlink" version="1.1"><rect x="0" y="0" width="2880" height="1440" fill="#0044a9"></rect><path d="M0 850L411 952L823 966L1234 881L1646 1022L2057 1063L2469 840L2880 851L2880 1441L2469 1441L2057 1441L1646 1441L1234 1441L823 1441L411 1441L0 1441Z" fill="#1b65fa"></path><path d="M0 1031L411 987L823 974L1234 1062L1646 1041L2057 1077L2469 1099L2880 985L2880 1441L2469 1441L2057 1441L1646 1441L1234 1441L823 1441L411 1441L0 1441Z" fill="#4886ff"></path><path d="M0 1052L411 1114L823 1080L1234 1055L1646 1161L2057 1139L2469 1171L2880 1065L2880 1441L2469 1441L2057 1441L1646 1441L1234 1441L823 1441L411 1441L0 1441Z" fill="#73a5ff"></path><path d="M0 1283L411 1198L823 1264L1234 1272L1646 1245L2057 1294L2469 1195L2880 1182L2880 1441L2469 1441L2057 1441L1646 1441L1234 1441L823 1441L411 1441L0 1441Z" fill="#9ec3ff"></path><path d="M0 1261L411 1348L823 1304L1234 1275L1646 1320L2057 1378L2469 1311L2880 1344L2880 1441L2469 1441L2057 1441L1646 1441L1234 1441L823 1441L411 1441L0 1441Z" fill="#cbe0ff"></path></svg>