<svg xmlns="http://www.w3.org/2000/svg" xmlns:xlink="http://www.w3.org/1999/xlink" width="400" zoomAndPan="magnify" viewBox="0 0 300 149.999998" height="200" preserveAspectRatio="xMidYMid meet" version="1.0"><defs><g/><clipPath id="7969dab9c1"><path d="M 58 63 L 87 63 L 87 95 L 58 95 Z M 58 63 " clip-rule="nonzero"/></clipPath><clipPath id="f945f6cece"><path d="M 76 51.589844 L 79 51.589844 L 79 54 L 76 54 Z M 76 51.589844 " clip-rule="nonzero"/></clipPath><clipPath id="7810a55683"><path d="M 23 104 L 26 104 L 26 106.339844 L 23 106.339844 Z M 23 104 " clip-rule="nonzero"/></clipPath></defs><g fill="#ffffff" fill-opacity="1"><g transform="translate(94.898381, 81.723095)"><g><path d="M 2.125 0 L 2.125 -24.65625 L 12.75 -24.65625 C 13.945312 -24.65625 15.054688 -24.40625 16.078125 -23.90625 C 17.097656 -23.414062 17.972656 -22.769531 18.703125 -21.96875 C 19.429688 -21.164062 20.003906 -20.25 20.421875 -19.21875 C 20.835938 -18.195312 21.046875 -17.160156 21.046875 -16.109375 C 21.046875 -15.023438 20.847656 -13.96875 20.453125 -12.9375 C 20.066406 -11.90625 19.519531 -10.988281 18.8125 -10.1875 C 18.101562 -9.394531 17.242188 -8.757812 16.234375 -8.28125 C 15.234375 -7.8125 14.128906 -7.578125 12.921875 -7.578125 L 8.890625 -7.578125 L 8.890625 0 Z M 8.890625 -13.484375 L 12.46875 -13.484375 C 12.882812 -13.484375 13.269531 -13.671875 13.625 -14.046875 C 13.988281 -14.429688 14.171875 -15.117188 14.171875 -16.109375 C 14.171875 -17.128906 13.960938 -17.820312 13.546875 -18.1875 C 13.128906 -18.5625 12.710938 -18.75 12.296875 -18.75 L 8.890625 -18.75 Z M 8.890625 -13.484375 "/></g></g></g><g fill="#ffffff" fill-opacity="1"><g transform="translate(116.433376, 81.723095)"><g><path d="M 10.65625 0.34375 C 9.0625 0.34375 7.640625 0.0976562 6.390625 -0.390625 C 5.140625 -0.890625 4.09375 -1.566406 3.25 -2.421875 C 2.40625 -3.285156 1.757812 -4.269531 1.3125 -5.375 C 0.875 -6.488281 0.65625 -7.660156 0.65625 -8.890625 C 0.65625 -10.210938 0.867188 -11.460938 1.296875 -12.640625 C 1.722656 -13.828125 2.359375 -14.859375 3.203125 -15.734375 C 4.054688 -16.609375 5.101562 -17.304688 6.34375 -17.828125 C 7.582031 -18.359375 9.019531 -18.625 10.65625 -18.625 C 12.28125 -18.625 13.71875 -18.359375 14.96875 -17.828125 C 16.21875 -17.304688 17.265625 -16.613281 18.109375 -15.75 C 18.953125 -14.882812 19.585938 -13.878906 20.015625 -12.734375 C 20.453125 -11.585938 20.671875 -10.390625 20.671875 -9.140625 C 20.671875 -8.785156 20.648438 -8.425781 20.609375 -8.0625 C 20.578125 -7.707031 20.539062 -7.394531 20.5 -7.125 L 7.671875 -7.125 C 7.742188 -6.144531 8.101562 -5.441406 8.75 -5.015625 C 9.394531 -4.585938 10.101562 -4.375 10.875 -4.375 C 11.59375 -4.375 12.269531 -4.535156 12.90625 -4.859375 C 13.539062 -5.179688 13.960938 -5.632812 14.171875 -6.21875 L 19.765625 -4.625 C 19.023438 -3.164062 17.882812 -1.972656 16.34375 -1.046875 C 14.800781 -0.117188 12.90625 0.34375 10.65625 0.34375 Z M 13.578125 -11.078125 C 13.460938 -11.960938 13.140625 -12.65625 12.609375 -13.15625 C 12.078125 -13.664062 11.394531 -13.921875 10.5625 -13.921875 C 9.726562 -13.921875 9.046875 -13.664062 8.515625 -13.15625 C 7.984375 -12.65625 7.65625 -11.960938 7.53125 -11.078125 Z M 13.578125 -11.078125 "/></g></g></g><g fill="#ffffff" fill-opacity="1"><g transform="translate(137.621036, 81.723095)"><g><path d="M 14.0625 -12.640625 C 12.789062 -12.640625 11.632812 -12.5 10.59375 -12.21875 C 9.550781 -11.945312 8.773438 -11.488281 8.265625 -10.84375 L 8.265625 0 L 1.671875 0 L 1.671875 -18.265625 L 7.71875 -18.265625 L 7.71875 -14.796875 C 8.363281 -16.023438 9.164062 -16.96875 10.125 -17.625 C 11.082031 -18.289062 12.117188 -18.625 13.234375 -18.625 C 13.671875 -18.625 13.945312 -18.609375 14.0625 -18.578125 Z M 14.0625 -12.640625 "/></g></g></g><g fill="#ffffff" fill-opacity="1"><g transform="translate(152.105061, 81.723095)"><g><path d="M 10.65625 0.34375 C 9.0625 0.34375 7.640625 0.0976562 6.390625 -0.390625 C 5.140625 -0.890625 4.09375 -1.566406 3.25 -2.421875 C 2.40625 -3.285156 1.757812 -4.269531 1.3125 -5.375 C 0.875 -6.488281 0.65625 -7.660156 0.65625 -8.890625 C 0.65625 -10.210938 0.867188 -11.460938 1.296875 -12.640625 C 1.722656 -13.828125 2.359375 -14.859375 3.203125 -15.734375 C 4.054688 -16.609375 5.101562 -17.304688 6.34375 -17.828125 C 7.582031 -18.359375 9.019531 -18.625 10.65625 -18.625 C 12.28125 -18.625 13.71875 -18.359375 14.96875 -17.828125 C 16.21875 -17.304688 17.265625 -16.613281 18.109375 -15.75 C 18.953125 -14.882812 19.585938 -13.878906 20.015625 -12.734375 C 20.453125 -11.585938 20.671875 -10.390625 20.671875 -9.140625 C 20.671875 -8.785156 20.648438 -8.425781 20.609375 -8.0625 C 20.578125 -7.707031 20.539062 -7.394531 20.5 -7.125 L 7.671875 -7.125 C 7.742188 -6.144531 8.101562 -5.441406 8.75 -5.015625 C 9.394531 -4.585938 10.101562 -4.375 10.875 -4.375 C 11.59375 -4.375 12.269531 -4.535156 12.90625 -4.859375 C 13.539062 -5.179688 13.960938 -5.632812 14.171875 -6.21875 L 19.765625 -4.625 C 19.023438 -3.164062 17.882812 -1.972656 16.34375 -1.046875 C 14.800781 -0.117188 12.90625 0.34375 10.65625 0.34375 Z M 13.578125 -11.078125 C 13.460938 -11.960938 13.140625 -12.65625 12.609375 -13.15625 C 12.078125 -13.664062 11.394531 -13.921875 10.5625 -13.921875 C 9.726562 -13.921875 9.046875 -13.664062 8.515625 -13.15625 C 7.984375 -12.65625 7.65625 -11.960938 7.53125 -11.078125 Z M 13.578125 -11.078125 "/></g></g></g><g fill="#ffffff" fill-opacity="1"><g transform="translate(173.29272, 81.723095)"><g><path d="M 8.6875 0 C 7.5 0 6.410156 -0.234375 5.421875 -0.703125 C 4.441406 -1.179688 3.601562 -1.832031 2.90625 -2.65625 C 2.21875 -3.476562 1.679688 -4.441406 1.296875 -5.546875 C 0.921875 -6.660156 0.734375 -7.867188 0.734375 -9.171875 C 0.734375 -10.535156 0.941406 -11.796875 1.359375 -12.953125 C 1.773438 -14.109375 2.359375 -15.101562 3.109375 -15.9375 C 3.859375 -16.769531 4.753906 -17.425781 5.796875 -17.90625 C 6.835938 -18.382812 7.984375 -18.625 9.234375 -18.625 C 10.554688 -18.625 11.710938 -18.359375 12.703125 -17.828125 C 13.703125 -17.304688 14.492188 -16.550781 15.078125 -15.5625 L 15.078125 -18.265625 L 20.8125 -18.265625 L 20.8125 -1.671875 C 20.8125 -0.234375 20.539062 1.0625 20 2.21875 C 19.46875 3.375 18.71875 4.359375 17.75 5.171875 C 16.78125 5.984375 15.609375 6.613281 14.234375 7.0625 C 12.867188 7.519531 11.351562 7.75 9.6875 7.75 C 7.738281 7.75 6.046875 7.445312 4.609375 6.84375 C 3.179688 6.238281 1.910156 5.367188 0.796875 4.234375 L 4.265625 0.625 C 4.941406 1.25 5.75 1.773438 6.6875 2.203125 C 7.625 2.628906 8.625 2.84375 9.6875 2.84375 C 10.289062 2.84375 10.863281 2.757812 11.40625 2.59375 C 11.945312 2.4375 12.425781 2.175781 12.84375 1.8125 C 13.269531 1.457031 13.601562 0.988281 13.84375 0.40625 C 14.082031 -0.164062 14.203125 -0.859375 14.203125 -1.671875 L 14.203125 -2.84375 C 13.671875 -1.875 12.910156 -1.15625 11.921875 -0.6875 C 10.941406 -0.226562 9.863281 0 8.6875 0 Z M 11.046875 -5.203125 C 11.710938 -5.203125 12.296875 -5.359375 12.796875 -5.671875 C 13.296875 -5.984375 13.765625 -6.453125 14.203125 -7.078125 L 14.203125 -10.34375 C 13.878906 -11.175781 13.398438 -11.835938 12.765625 -12.328125 C 12.128906 -12.816406 11.460938 -13.0625 10.765625 -13.0625 C 10.304688 -13.0625 9.875 -12.953125 9.46875 -12.734375 C 9.0625 -12.515625 8.707031 -12.222656 8.40625 -11.859375 C 8.101562 -11.503906 7.867188 -11.078125 7.703125 -10.578125 C 7.546875 -10.078125 7.46875 -9.550781 7.46875 -9 C 7.46875 -7.863281 7.800781 -6.945312 8.46875 -6.25 C 9.144531 -5.550781 10.003906 -5.203125 11.046875 -5.203125 Z M 11.046875 -5.203125 "/></g></g></g><g fill="#ffffff" fill-opacity="1"><g transform="translate(195.765536, 81.723095)"><g><path d="M 14.0625 -12.640625 C 12.789062 -12.640625 11.632812 -12.5 10.59375 -12.21875 C 9.550781 -11.945312 8.773438 -11.488281 8.265625 -10.84375 L 8.265625 0 L 1.671875 0 L 1.671875 -18.265625 L 7.71875 -18.265625 L 7.71875 -14.796875 C 8.363281 -16.023438 9.164062 -16.96875 10.125 -17.625 C 11.082031 -18.289062 12.117188 -18.625 13.234375 -18.625 C 13.671875 -18.625 13.945312 -18.609375 14.0625 -18.578125 Z M 14.0625 -12.640625 "/></g></g></g><g fill="#ffffff" fill-opacity="1"><g transform="translate(210.249561, 81.723095)"><g><path d="M 1.671875 0 L 1.671875 -18.265625 L 8.265625 -18.265625 L 8.265625 0 Z M 1.671875 -19.796875 L 1.671875 -25.359375 L 8.265625 -25.359375 L 8.265625 -19.796875 Z M 1.671875 -19.796875 "/></g></g></g><g fill="#ffffff" fill-opacity="1"><g transform="translate(220.183447, 81.723095)"><g><path d="M 20.046875 0 L 13.4375 0 L 13.4375 -10.28125 C 13.4375 -11.1875 13.234375 -11.84375 12.828125 -12.25 C 12.421875 -12.65625 11.953125 -12.859375 11.421875 -12.859375 C 10.867188 -12.859375 10.28125 -12.613281 9.65625 -12.125 C 9.03125 -11.632812 8.566406 -11.007812 8.265625 -10.25 L 8.265625 0 L 1.671875 0 L 1.671875 -18.265625 L 7.609375 -18.265625 L 7.609375 -15.5625 C 8.253906 -16.550781 9.160156 -17.304688 10.328125 -17.828125 C 11.503906 -18.359375 12.890625 -18.625 14.484375 -18.625 C 15.734375 -18.625 16.722656 -18.394531 17.453125 -17.9375 C 18.179688 -17.488281 18.734375 -16.925781 19.109375 -16.25 C 19.492188 -15.582031 19.742188 -14.863281 19.859375 -14.09375 C 19.984375 -13.332031 20.046875 -12.640625 20.046875 -12.015625 Z M 20.046875 0 "/></g></g></g><g fill="#ffffff" fill-opacity="1"><g transform="translate(241.753184, 81.723095)"><g><path d="M 20.046875 0 L 13.4375 0 L 13.4375 -10.28125 C 13.4375 -11.1875 13.234375 -11.84375 12.828125 -12.25 C 12.421875 -12.65625 11.953125 -12.859375 11.421875 -12.859375 C 10.867188 -12.859375 10.28125 -12.613281 9.65625 -12.125 C 9.03125 -11.632812 8.566406 -11.007812 8.265625 -10.25 L 8.265625 0 L 1.671875 0 L 1.671875 -18.265625 L 7.609375 -18.265625 L 7.609375 -15.5625 C 8.253906 -16.550781 9.160156 -17.304688 10.328125 -17.828125 C 11.503906 -18.359375 12.890625 -18.625 14.484375 -18.625 C 15.734375 -18.625 16.722656 -18.394531 17.453125 -17.9375 C 18.179688 -17.488281 18.734375 -16.925781 19.109375 -16.25 C 19.492188 -15.582031 19.742188 -14.863281 19.859375 -14.09375 C 19.984375 -13.332031 20.046875 -12.640625 20.046875 -12.015625 Z M 20.046875 0 "/></g></g></g><g fill="#ffffff" fill-opacity="1"><g transform="translate(263.32292, 81.723095)"><g><path d="M 10.65625 0.34375 C 9.019531 0.34375 7.582031 0.0820312 6.34375 -0.4375 C 5.101562 -0.957031 4.054688 -1.648438 3.203125 -2.515625 C 2.359375 -3.390625 1.722656 -4.398438 1.296875 -5.546875 C 0.867188 -6.691406 0.65625 -7.890625 0.65625 -9.140625 C 0.65625 -10.390625 0.867188 -11.585938 1.296875 -12.734375 C 1.722656 -13.878906 2.359375 -14.882812 3.203125 -15.75 C 4.054688 -16.613281 5.101562 -17.304688 6.34375 -17.828125 C 7.582031 -18.359375 9.019531 -18.625 10.65625 -18.625 C 12.28125 -18.625 13.71875 -18.359375 14.96875 -17.828125 C 16.21875 -17.304688 17.265625 -16.613281 18.109375 -15.75 C 18.953125 -14.882812 19.585938 -13.878906 20.015625 -12.734375 C 20.453125 -11.585938 20.671875 -10.390625 20.671875 -9.140625 C 20.671875 -7.890625 20.453125 -6.691406 20.015625 -5.546875 C 19.585938 -4.398438 18.953125 -3.390625 18.109375 -2.515625 C 17.265625 -1.648438 16.21875 -0.957031 14.96875 -0.4375 C 13.71875 0.0820312 12.28125 0.34375 10.65625 0.34375 Z M 7.4375 -9.140625 C 7.4375 -7.910156 7.734375 -6.945312 8.328125 -6.25 C 8.929688 -5.550781 9.707031 -5.203125 10.65625 -5.203125 C 11.613281 -5.203125 12.390625 -5.550781 12.984375 -6.25 C 13.585938 -6.945312 13.890625 -7.910156 13.890625 -9.140625 C 13.890625 -10.359375 13.585938 -11.316406 12.984375 -12.015625 C 12.390625 -12.710938 11.613281 -13.0625 10.65625 -13.0625 C 9.707031 -13.0625 8.929688 -12.710938 8.328125 -12.015625 C 7.734375 -11.316406 7.4375 -10.359375 7.4375 -9.140625 Z M 7.4375 -9.140625 "/></g></g></g><path fill="#5271ff" d="M 85.039062 77.785156 L 72.113281 64.859375 C 71.761719 64.507812 71.285156 64.3125 70.789062 64.3125 L 60.21875 64.3125 C 59.464844 64.3125 58.785156 64.765625 58.496094 65.464844 C 58.207031 66.164062 58.363281 66.96875 58.898438 67.503906 L 70.503906 79.105469 L 58.898438 90.710938 C 58.363281 91.242188 58.203125 92.046875 58.496094 92.746094 C 58.785156 93.441406 59.464844 93.898438 60.21875 93.898438 L 70.789062 93.898438 C 71.285156 93.898438 71.761719 93.703125 72.113281 93.351562 L 85.039062 80.425781 C 85.386719 80.078125 85.585938 79.601562 85.585938 79.105469 C 85.585938 78.609375 85.386719 78.132812 85.039062 77.785156 Z M 85.039062 77.785156 " fill-opacity="1" fill-rule="nonzero"/><path fill="#004aad" d="M 75.328125 80.425781 C 75.679688 80.078125 75.878906 79.601562 75.878906 79.105469 C 75.878906 78.609375 75.679688 78.132812 75.328125 77.785156 L 62.40625 64.859375 C 62.054688 64.507812 61.578125 64.3125 61.082031 64.3125 L 60.21875 64.3125 C 59.464844 64.3125 58.785156 64.765625 58.496094 65.464844 C 58.207031 66.164062 58.363281 66.96875 58.898438 67.503906 L 70.503906 79.105469 L 58.898438 90.710938 C 58.363281 91.242188 58.203125 92.046875 58.496094 92.746094 C 58.785156 93.441406 59.464844 93.898438 60.21875 93.898438 L 61.082031 93.898438 C 61.578125 93.898438 62.054688 93.703125 62.40625 93.351562 Z M 75.328125 80.425781 " fill-opacity="1" fill-rule="nonzero"/><path fill="#5271ff" d="M 43.074219 65.464844 C 42.785156 64.765625 42.105469 64.3125 41.351562 64.3125 L 30.78125 64.3125 C 30.285156 64.3125 29.808594 64.507812 29.457031 64.859375 L 16.53125 77.785156 C 16.183594 78.132812 15.984375 78.609375 15.984375 79.105469 C 15.984375 79.601562 16.183594 80.078125 16.53125 80.425781 L 29.457031 93.351562 C 29.808594 93.703125 30.285156 93.898438 30.78125 93.898438 L 41.351562 93.898438 C 42.105469 93.898438 42.785156 93.441406 43.074219 92.746094 C 43.363281 92.046875 43.207031 91.242188 42.671875 90.710938 L 31.066406 79.105469 L 42.671875 67.503906 C 43.207031 66.96875 43.367188 66.164062 43.074219 65.464844 Z M 43.074219 65.464844 " fill-opacity="1" fill-rule="nonzero"/><path fill="#004aad" d="M 43.074219 92.746094 C 43.363281 92.046875 43.207031 91.242188 42.671875 90.710938 L 31.066406 79.105469 L 42.671875 67.503906 C 43.207031 66.96875 43.367188 66.164062 43.074219 65.464844 C 42.785156 64.765625 42.105469 64.3125 41.351562 64.3125 L 40.488281 64.3125 C 39.992188 64.3125 39.515625 64.507812 39.164062 64.859375 L 26.238281 77.785156 C 25.890625 78.132812 25.691406 78.609375 25.691406 79.105469 C 25.691406 79.601562 25.890625 80.078125 26.238281 80.425781 L 39.164062 93.351562 C 39.515625 93.703125 39.992188 93.898438 40.488281 93.898438 L 41.351562 93.898438 C 42.105469 93.898438 42.785156 93.441406 43.074219 92.746094 Z M 43.074219 92.746094 " fill-opacity="1" fill-rule="nonzero"/><g clip-path="url(#7969dab9c1)"><path stroke-linecap="round" transform="matrix(0.554719, 0, 0, 0.554719, 13.689672, 41.661928)" fill="none" stroke-linejoin="round" d="M 129.88307 65.119865 L 106.581577 41.818372 C 105.94781 41.184605 105.088704 40.832513 104.194389 40.832513 L 85.139134 40.832513 C 83.780056 40.832513 82.547732 41.649368 82.026635 42.90986 C 81.505538 44.170351 81.794254 45.620973 82.758987 46.585707 L 103.680334 67.500011 L 82.758987 88.421358 C 81.794254 89.37905 81.505538 90.829671 82.026635 92.090163 C 82.547732 93.343613 83.780056 94.16751 85.139134 94.16751 L 104.194389 94.16751 C 105.088704 94.16751 105.94781 93.815417 106.581577 93.18165 L 129.88307 69.880158 C 130.509795 69.253433 130.868929 68.394327 130.868929 67.500011 C 130.868929 66.605696 130.509795 65.74659 129.88307 65.119865 Z M 129.88307 65.119865 " stroke="#33363a" stroke-width="3" stroke-opacity="1" stroke-miterlimit="10"/></g><path stroke-linecap="round" transform="matrix(0.554719, 0, 0, 0.554719, 13.689672, 41.661928)" fill="none" stroke-linejoin="round" d="M 108.673008 62.500295 L 87.751661 83.421642 " stroke="#33363a" stroke-width="3" stroke-opacity="1" stroke-miterlimit="10"/><path stroke-linecap="round" transform="matrix(0.554719, 0, 0, 0.554719, 13.689672, 41.661928)" fill="none" stroke-linejoin="round" d="M 52.971948 42.90986 C 52.450851 41.649368 51.225568 40.832513 49.866491 40.832513 L 30.811235 40.832513 C 29.91692 40.832513 29.057814 41.184605 28.424047 41.818372 L 5.122555 65.119865 C 4.49583 65.74659 4.136695 66.605696 4.136695 67.500011 C 4.136695 68.394327 4.49583 69.253433 5.122555 69.880158 L 28.424047 93.18165 C 29.057814 93.815417 29.91692 94.16751 30.811235 94.16751 L 49.866491 94.16751 C 51.225568 94.16751 52.450851 93.343613 52.971948 92.090163 C 53.493045 90.829671 53.211371 89.37905 52.246637 88.421358 L 31.325291 67.500011 L 52.246637 46.585707 C 53.211371 45.620973 53.500087 44.170351 52.971948 42.90986 Z M 52.971948 42.90986 " stroke="#33363a" stroke-width="3" stroke-opacity="1" stroke-miterlimit="10"/><path stroke-linecap="round" transform="matrix(0.554719, 0, 0, 0.554719, 13.689672, 41.661928)" fill="none" stroke-linejoin="round" d="M 26.325575 72.499727 L 47.246921 51.585423 " stroke="#33363a" stroke-width="3" stroke-opacity="1" stroke-miterlimit="10"/><path stroke-linecap="round" transform="matrix(0.554719, 0, 0, 0.554719, 13.689672, 41.661928)" fill="none" stroke-linejoin="round" d="M 57.042139 77.957164 L 77.956443 57.042859 " stroke="#33363a" stroke-width="3" stroke-opacity="1" stroke-miterlimit="10"/><path stroke-linecap="round" transform="matrix(0.554719, 0, 0, 0.554719, 13.689672, 41.661928)" fill="none" stroke-linejoin="round" d="M 101.398773 33.600529 L 103.785961 31.213341 " stroke="#33363a" stroke-width="3" stroke-opacity="1" stroke-miterlimit="10"/><path stroke-linecap="round" transform="matrix(0.554719, 0, 0, 0.554719, 13.689672, 41.661928)" fill="none" stroke-linejoin="round" d="M 108.18712 26.812183 L 108.440627 26.558676 " stroke="#33363a" stroke-width="3" stroke-opacity="1" stroke-miterlimit="10"/><path stroke-linecap="round" transform="matrix(0.554719, 0, 0, 0.554719, 13.689672, 41.661928)" fill="none" stroke-linejoin="round" d="M 111.679879 23.319424 L 111.926344 23.072959 " stroke="#33363a" stroke-width="3" stroke-opacity="1" stroke-miterlimit="10"/><g clip-path="url(#f945f6cece)"><path stroke-linecap="round" transform="matrix(0.554719, 0, 0, 0.554719, 13.689672, 41.661928)" fill="none" stroke-linejoin="round" d="M 115.172638 19.833706 L 115.419103 19.580199 " stroke="#33363a" stroke-width="3" stroke-opacity="1" stroke-miterlimit="10"/></g><path stroke-linecap="round" transform="matrix(0.554719, 0, 0, 0.554719, 13.689672, 41.661928)" fill="none" stroke-linejoin="round" d="M 33.599809 101.399493 L 31.212621 103.786682 " stroke="#33363a" stroke-width="3" stroke-opacity="1" stroke-miterlimit="10"/><path stroke-linecap="round" transform="matrix(0.554719, 0, 0, 0.554719, 13.689672, 41.661928)" fill="none" stroke-linejoin="round" d="M 26.811463 108.18784 L 26.557956 108.441347 " stroke="#33363a" stroke-width="3" stroke-opacity="1" stroke-miterlimit="10"/><path stroke-linecap="round" transform="matrix(0.554719, 0, 0, 0.554719, 13.689672, 41.661928)" fill="none" stroke-linejoin="round" d="M 23.318704 111.680599 L 23.072239 111.927064 " stroke="#33363a" stroke-width="3" stroke-opacity="1" stroke-miterlimit="10"/><g clip-path="url(#7810a55683)"><path stroke-linecap="round" transform="matrix(0.554719, 0, 0, 0.554719, 13.689672, 41.661928)" fill="none" stroke-linejoin="round" d="M 19.832986 115.173358 L 19.579479 115.419823 " stroke="#33363a" stroke-width="3" stroke-opacity="1" stroke-miterlimit="10"/></g><g fill="#ffffff" fill-opacity="1"><g transform="translate(93.995402, 101.919852)"><g><path d="M 5.96875 -6.296875 C 5.914062 -6.347656 5.8125 -6.421875 5.65625 -6.515625 C 5.507812 -6.617188 5.332031 -6.710938 5.125 -6.796875 C 4.914062 -6.890625 4.6875 -6.96875 4.4375 -7.03125 C 4.1875 -7.101562 3.929688 -7.140625 3.671875 -7.140625 C 3.210938 -7.140625 2.867188 -7.050781 2.640625 -6.875 C 2.421875 -6.707031 2.3125 -6.472656 2.3125 -6.171875 C 2.3125 -5.992188 2.351562 -5.847656 2.4375 -5.734375 C 2.53125 -5.617188 2.65625 -5.515625 2.8125 -5.421875 C 2.96875 -5.335938 3.164062 -5.257812 3.40625 -5.1875 C 3.65625 -5.113281 3.941406 -5.039062 4.265625 -4.96875 C 4.679688 -4.851562 5.054688 -4.726562 5.390625 -4.59375 C 5.734375 -4.46875 6.023438 -4.304688 6.265625 -4.109375 C 6.503906 -3.921875 6.6875 -3.691406 6.8125 -3.421875 C 6.9375 -3.160156 7 -2.832031 7 -2.4375 C 7 -1.976562 6.910156 -1.585938 6.734375 -1.265625 C 6.566406 -0.941406 6.335938 -0.679688 6.046875 -0.484375 C 5.753906 -0.285156 5.414062 -0.140625 5.03125 -0.046875 C 4.65625 0.046875 4.257812 0.09375 3.84375 0.09375 C 3.207031 0.09375 2.578125 0 1.953125 -0.1875 C 1.328125 -0.382812 0.765625 -0.660156 0.265625 -1.015625 L 1 -2.4375 C 1.070312 -2.363281 1.203125 -2.269531 1.390625 -2.15625 C 1.578125 -2.039062 1.796875 -1.925781 2.046875 -1.8125 C 2.304688 -1.695312 2.59375 -1.597656 2.90625 -1.515625 C 3.21875 -1.429688 3.539062 -1.390625 3.875 -1.390625 C 4.78125 -1.390625 5.234375 -1.679688 5.234375 -2.265625 C 5.234375 -2.453125 5.179688 -2.609375 5.078125 -2.734375 C 4.972656 -2.867188 4.820312 -2.984375 4.625 -3.078125 C 4.4375 -3.171875 4.207031 -3.253906 3.9375 -3.328125 C 3.664062 -3.410156 3.363281 -3.503906 3.03125 -3.609375 C 2.625 -3.710938 2.269531 -3.832031 1.96875 -3.96875 C 1.664062 -4.101562 1.410156 -4.257812 1.203125 -4.4375 C 1.003906 -4.613281 0.851562 -4.820312 0.75 -5.0625 C 0.65625 -5.300781 0.609375 -5.582031 0.609375 -5.90625 C 0.609375 -6.34375 0.6875 -6.726562 0.84375 -7.0625 C 1.007812 -7.394531 1.234375 -7.675781 1.515625 -7.90625 C 1.804688 -8.132812 2.140625 -8.304688 2.515625 -8.421875 C 2.890625 -8.535156 3.289062 -8.59375 3.71875 -8.59375 C 4.320312 -8.59375 4.875 -8.5 5.375 -8.3125 C 5.882812 -8.125 6.328125 -7.898438 6.703125 -7.640625 Z M 5.96875 -6.296875 "/></g></g></g><g fill="#ffffff" fill-opacity="1"><g transform="translate(101.362983, 101.919852)"><g><path d="M 3.640625 0.125 C 3.128906 0.125 2.664062 0.0351562 2.25 -0.140625 C 1.84375 -0.316406 1.5 -0.554688 1.21875 -0.859375 C 0.9375 -1.160156 0.71875 -1.503906 0.5625 -1.890625 C 0.414062 -2.285156 0.34375 -2.703125 0.34375 -3.140625 C 0.34375 -3.578125 0.414062 -3.988281 0.5625 -4.375 C 0.71875 -4.769531 0.9375 -5.117188 1.21875 -5.421875 C 1.5 -5.722656 1.84375 -5.960938 2.25 -6.140625 C 2.664062 -6.316406 3.128906 -6.40625 3.640625 -6.40625 C 4.148438 -6.40625 4.609375 -6.316406 5.015625 -6.140625 C 5.421875 -5.960938 5.765625 -5.722656 6.046875 -5.421875 C 6.328125 -5.117188 6.546875 -4.769531 6.703125 -4.375 C 6.859375 -3.988281 6.9375 -3.578125 6.9375 -3.140625 C 6.9375 -2.703125 6.859375 -2.285156 6.703125 -1.890625 C 6.546875 -1.503906 6.328125 -1.160156 6.046875 -0.859375 C 5.773438 -0.554688 5.429688 -0.316406 5.015625 -0.140625 C 4.609375 0.0351562 4.148438 0.125 3.640625 0.125 Z M 2 -3.140625 C 2 -2.859375 2.039062 -2.601562 2.125 -2.375 C 2.207031 -2.144531 2.320312 -1.945312 2.46875 -1.78125 C 2.613281 -1.613281 2.785156 -1.484375 2.984375 -1.390625 C 3.191406 -1.296875 3.410156 -1.25 3.640625 -1.25 C 3.867188 -1.25 4.082031 -1.296875 4.28125 -1.390625 C 4.488281 -1.484375 4.664062 -1.613281 4.8125 -1.78125 C 4.957031 -1.945312 5.070312 -2.144531 5.15625 -2.375 C 5.238281 -2.613281 5.28125 -2.867188 5.28125 -3.140625 C 5.28125 -3.421875 5.238281 -3.675781 5.15625 -3.90625 C 5.070312 -4.132812 4.957031 -4.332031 4.8125 -4.5 C 4.664062 -4.675781 4.488281 -4.804688 4.28125 -4.890625 C 4.082031 -4.984375 3.867188 -5.03125 3.640625 -5.03125 C 3.410156 -5.03125 3.191406 -4.984375 2.984375 -4.890625 C 2.785156 -4.796875 2.613281 -4.660156 2.46875 -4.484375 C 2.320312 -4.316406 2.207031 -4.117188 2.125 -3.890625 C 2.039062 -3.660156 2 -3.410156 2 -3.140625 Z M 2 -3.140625 "/></g></g></g><g fill="#ffffff" fill-opacity="1"><g transform="translate(108.646429, 101.919852)"><g><path d="M 1.125 0 L 1.125 -4.734375 L 0.28125 -4.734375 L 0.28125 -5.953125 L 1.125 -5.953125 L 1.125 -6.34375 C 1.125 -7.125 1.3125 -7.742188 1.6875 -8.203125 C 2.0625 -8.660156 2.570312 -8.890625 3.21875 -8.890625 C 3.726562 -8.890625 4.242188 -8.765625 4.765625 -8.515625 L 4.453125 -7.3125 C 4.328125 -7.375 4.179688 -7.425781 4.015625 -7.46875 C 3.847656 -7.507812 3.695312 -7.53125 3.5625 -7.53125 C 3.007812 -7.53125 2.734375 -7.15625 2.734375 -6.40625 L 2.734375 -5.953125 L 4.265625 -5.953125 L 4.265625 -4.734375 L 2.734375 -4.734375 L 2.734375 0 Z M 1.125 0 "/></g></g></g><g fill="#ffffff" fill-opacity="1"><g transform="translate(113.093417, 101.919852)"><g><path d="M 4.5 -0.328125 C 4.289062 -0.234375 4.03125 -0.132812 3.71875 -0.03125 C 3.40625 0.0625 3.078125 0.109375 2.734375 0.109375 C 2.503906 0.109375 2.289062 0.078125 2.09375 0.015625 C 1.894531 -0.0351562 1.722656 -0.125 1.578125 -0.25 C 1.429688 -0.375 1.3125 -0.53125 1.21875 -0.71875 C 1.132812 -0.914062 1.09375 -1.15625 1.09375 -1.4375 L 1.09375 -5.0625 L 0.265625 -5.0625 L 0.265625 -6.296875 L 1.09375 -6.296875 L 1.09375 -8.34375 L 2.703125 -8.34375 L 2.703125 -6.296875 L 4.03125 -6.296875 L 4.03125 -5.0625 L 2.703125 -5.0625 L 2.703125 -1.984375 C 2.703125 -1.753906 2.757812 -1.59375 2.875 -1.5 C 2.988281 -1.414062 3.128906 -1.375 3.296875 -1.375 C 3.472656 -1.375 3.640625 -1.398438 3.796875 -1.453125 C 3.953125 -1.503906 4.082031 -1.550781 4.1875 -1.59375 Z M 4.5 -0.328125 "/></g></g></g><g fill="#ffffff" fill-opacity="1"><g transform="translate(117.70867, 101.919852)"><g><path d="M 8.546875 -6.296875 L 10.0625 -6.296875 L 7.4375 0 L 6.109375 0 L 5.03125 -2.765625 L 3.96875 0 L 2.640625 0 L 0.03125 -6.296875 L 1.53125 -6.296875 L 3.40625 -1.515625 L 4.1875 -3.5625 L 3.078125 -6.28125 L 4.375 -6.28125 L 5.03125 -4.34375 L 5.703125 -6.28125 L 7 -6.28125 L 5.90625 -3.5625 L 6.671875 -1.515625 Z M 8.546875 -6.296875 "/></g></g></g><g fill="#ffffff" fill-opacity="1"><g transform="translate(127.792517, 101.919852)"><g><path d="M 2.453125 0.125 C 2.148438 0.125 1.863281 0.0703125 1.59375 -0.03125 C 1.332031 -0.132812 1.101562 -0.273438 0.90625 -0.453125 C 0.71875 -0.628906 0.566406 -0.835938 0.453125 -1.078125 C 0.347656 -1.316406 0.296875 -1.582031 0.296875 -1.875 C 0.296875 -2.164062 0.363281 -2.4375 0.5 -2.6875 C 0.632812 -2.945312 0.816406 -3.164062 1.046875 -3.34375 C 1.285156 -3.519531 1.566406 -3.65625 1.890625 -3.75 C 2.222656 -3.851562 2.585938 -3.90625 2.984375 -3.90625 C 3.265625 -3.90625 3.535156 -3.878906 3.796875 -3.828125 C 4.066406 -3.785156 4.304688 -3.71875 4.515625 -3.625 L 4.515625 -3.984375 C 4.515625 -4.398438 4.394531 -4.71875 4.15625 -4.9375 C 3.925781 -5.164062 3.578125 -5.28125 3.109375 -5.28125 C 2.773438 -5.28125 2.445312 -5.21875 2.125 -5.09375 C 1.800781 -4.976562 1.472656 -4.804688 1.140625 -4.578125 L 0.65625 -5.59375 C 1.457031 -6.132812 2.328125 -6.40625 3.265625 -6.40625 C 4.171875 -6.40625 4.875 -6.179688 5.375 -5.734375 C 5.875 -5.296875 6.125 -4.65625 6.125 -3.8125 L 6.125 -1.84375 C 6.125 -1.675781 6.15625 -1.554688 6.21875 -1.484375 C 6.28125 -1.410156 6.378906 -1.375 6.515625 -1.375 L 6.515625 0 C 6.242188 0.0507812 6.003906 0.078125 5.796875 0.078125 C 5.492188 0.078125 5.257812 0.0078125 5.09375 -0.125 C 4.9375 -0.257812 4.835938 -0.4375 4.796875 -0.65625 L 4.765625 -1.015625 C 4.484375 -0.640625 4.140625 -0.351562 3.734375 -0.15625 C 3.335938 0.03125 2.910156 0.125 2.453125 0.125 Z M 2.90625 -1.0625 C 3.175781 -1.0625 3.429688 -1.109375 3.671875 -1.203125 C 3.921875 -1.296875 4.113281 -1.425781 4.25 -1.59375 C 4.425781 -1.726562 4.515625 -1.878906 4.515625 -2.046875 L 4.515625 -2.765625 C 4.328125 -2.835938 4.117188 -2.894531 3.890625 -2.9375 C 3.671875 -2.976562 3.457031 -3 3.25 -3 C 2.832031 -3 2.488281 -2.90625 2.21875 -2.71875 C 1.957031 -2.53125 1.828125 -2.289062 1.828125 -2 C 1.828125 -1.726562 1.929688 -1.503906 2.140625 -1.328125 C 2.347656 -1.148438 2.601562 -1.0625 2.90625 -1.0625 Z M 2.90625 -1.0625 "/></g></g></g><g fill="#ffffff" fill-opacity="1"><g transform="translate(134.691359, 101.919852)"><g><path d="M 4.484375 -4.90625 C 3.992188 -4.894531 3.554688 -4.796875 3.171875 -4.609375 C 2.785156 -4.429688 2.507812 -4.164062 2.34375 -3.8125 L 2.34375 0 L 0.734375 0 L 0.734375 -6.296875 L 2.203125 -6.296875 L 2.203125 -4.953125 C 2.316406 -5.171875 2.445312 -5.363281 2.59375 -5.53125 C 2.75 -5.707031 2.914062 -5.859375 3.09375 -5.984375 C 3.269531 -6.109375 3.445312 -6.203125 3.625 -6.265625 C 3.8125 -6.335938 3.988281 -6.375 4.15625 -6.375 C 4.25 -6.375 4.316406 -6.375 4.359375 -6.375 C 4.398438 -6.375 4.441406 -6.375 4.484375 -6.375 Z M 4.484375 -4.90625 "/></g></g></g><g fill="#ffffff" fill-opacity="1"><g transform="translate(139.34267, 101.919852)"><g><path d="M 3.65625 0.125 C 3.144531 0.125 2.6875 0.0390625 2.28125 -0.125 C 1.875 -0.300781 1.523438 -0.535156 1.234375 -0.828125 C 0.953125 -1.128906 0.734375 -1.476562 0.578125 -1.875 C 0.421875 -2.269531 0.34375 -2.679688 0.34375 -3.109375 C 0.34375 -3.554688 0.414062 -3.976562 0.5625 -4.375 C 0.71875 -4.769531 0.9375 -5.117188 1.21875 -5.421875 C 1.507812 -5.722656 1.859375 -5.960938 2.265625 -6.140625 C 2.679688 -6.316406 3.148438 -6.40625 3.671875 -6.40625 C 4.179688 -6.40625 4.632812 -6.316406 5.03125 -6.140625 C 5.4375 -5.960938 5.78125 -5.722656 6.0625 -5.421875 C 6.351562 -5.128906 6.570312 -4.785156 6.71875 -4.390625 C 6.863281 -4.003906 6.9375 -3.597656 6.9375 -3.171875 C 6.9375 -3.066406 6.9375 -2.96875 6.9375 -2.875 C 6.9375 -2.78125 6.925781 -2.695312 6.90625 -2.625 L 2.046875 -2.625 C 2.066406 -2.382812 2.125 -2.164062 2.21875 -1.96875 C 2.3125 -1.78125 2.4375 -1.617188 2.59375 -1.484375 C 2.75 -1.347656 2.921875 -1.242188 3.109375 -1.171875 C 3.304688 -1.097656 3.507812 -1.0625 3.71875 -1.0625 C 4.03125 -1.0625 4.328125 -1.140625 4.609375 -1.296875 C 4.898438 -1.453125 5.097656 -1.65625 5.203125 -1.90625 L 6.578125 -1.53125 C 6.347656 -1.050781 5.976562 -0.65625 5.46875 -0.34375 C 4.957031 -0.03125 4.351562 0.125 3.65625 0.125 Z M 5.28125 -3.671875 C 5.25 -4.148438 5.078125 -4.53125 4.765625 -4.8125 C 4.453125 -5.09375 4.078125 -5.234375 3.640625 -5.234375 C 3.421875 -5.234375 3.21875 -5.195312 3.03125 -5.125 C 2.84375 -5.050781 2.675781 -4.945312 2.53125 -4.8125 C 2.382812 -4.675781 2.265625 -4.507812 2.171875 -4.3125 C 2.085938 -4.125 2.035156 -3.910156 2.015625 -3.671875 Z M 5.28125 -3.671875 "/></g></g></g><g fill="#ffffff" fill-opacity="1"><g transform="translate(146.541986, 101.919852)"><g/></g></g><g fill="#ffffff" fill-opacity="1"><g transform="translate(149.426521, 101.919852)"><g><path d="M 6.8125 -1.453125 L 6.8125 0 L 0.890625 0 L 0.890625 -8.53125 L 6.703125 -8.53125 L 6.703125 -7.078125 L 2.546875 -7.078125 L 2.546875 -5.015625 L 6.140625 -5.015625 L 6.140625 -3.671875 L 2.546875 -3.671875 L 2.546875 -1.453125 Z M 6.8125 -1.453125 "/></g></g></g><g fill="#ffffff" fill-opacity="1"><g transform="translate(156.649878, 101.919852)"><g><path d="M 6.578125 0 L 4.96875 0 L 4.96875 -3.53125 C 4.96875 -4.039062 4.878906 -4.410156 4.703125 -4.640625 C 4.535156 -4.867188 4.296875 -4.984375 3.984375 -4.984375 C 3.816406 -4.984375 3.648438 -4.953125 3.484375 -4.890625 C 3.316406 -4.828125 3.15625 -4.738281 3 -4.625 C 2.851562 -4.507812 2.71875 -4.367188 2.59375 -4.203125 C 2.476562 -4.046875 2.394531 -3.867188 2.34375 -3.671875 L 2.34375 0 L 0.734375 0 L 0.734375 -6.296875 L 2.1875 -6.296875 L 2.1875 -5.125 C 2.414062 -5.53125 2.75 -5.84375 3.1875 -6.0625 C 3.632812 -6.289062 4.132812 -6.40625 4.6875 -6.40625 C 5.082031 -6.40625 5.398438 -6.332031 5.640625 -6.1875 C 5.890625 -6.039062 6.082031 -5.851562 6.21875 -5.625 C 6.351562 -5.394531 6.445312 -5.128906 6.5 -4.828125 C 6.550781 -4.535156 6.578125 -4.234375 6.578125 -3.921875 Z M 6.578125 0 "/></g></g></g><g fill="#ffffff" fill-opacity="1"><g transform="translate(163.909289, 101.919852)"><g><path d="M 3.203125 0.03125 C 2.773438 0.03125 2.390625 -0.0507812 2.046875 -0.21875 C 1.703125 -0.382812 1.398438 -0.613281 1.140625 -0.90625 C 0.890625 -1.195312 0.695312 -1.535156 0.5625 -1.921875 C 0.425781 -2.304688 0.359375 -2.710938 0.359375 -3.140625 C 0.359375 -3.597656 0.429688 -4.023438 0.578125 -4.421875 C 0.722656 -4.816406 0.921875 -5.160156 1.171875 -5.453125 C 1.429688 -5.753906 1.738281 -5.988281 2.09375 -6.15625 C 2.457031 -6.320312 2.859375 -6.40625 3.296875 -6.40625 C 3.785156 -6.40625 4.210938 -6.296875 4.578125 -6.078125 C 4.941406 -5.859375 5.242188 -5.5625 5.484375 -5.1875 L 5.484375 -6.296875 L 6.890625 -6.296875 L 6.890625 -0.296875 C 6.890625 0.160156 6.800781 0.570312 6.625 0.9375 C 6.457031 1.3125 6.21875 1.625 5.90625 1.875 C 5.59375 2.132812 5.222656 2.332031 4.796875 2.46875 C 4.367188 2.601562 3.90625 2.671875 3.40625 2.671875 C 2.707031 2.671875 2.125 2.554688 1.65625 2.328125 C 1.195312 2.109375 0.796875 1.789062 0.453125 1.375 L 1.328125 0.515625 C 1.566406 0.816406 1.867188 1.050781 2.234375 1.21875 C 2.597656 1.382812 2.988281 1.46875 3.40625 1.46875 C 3.644531 1.46875 3.878906 1.429688 4.109375 1.359375 C 4.335938 1.296875 4.539062 1.191406 4.71875 1.046875 C 4.894531 0.898438 5.03125 0.710938 5.125 0.484375 C 5.226562 0.265625 5.28125 0.00390625 5.28125 -0.296875 L 5.28125 -1.09375 C 5.070312 -0.726562 4.78125 -0.445312 4.40625 -0.25 C 4.03125 -0.0625 3.628906 0.03125 3.203125 0.03125 Z M 3.734375 -1.25 C 3.910156 -1.25 4.078125 -1.273438 4.234375 -1.328125 C 4.398438 -1.390625 4.550781 -1.46875 4.6875 -1.5625 C 4.820312 -1.65625 4.941406 -1.765625 5.046875 -1.890625 C 5.148438 -2.023438 5.226562 -2.164062 5.28125 -2.3125 L 5.28125 -3.8125 C 5.144531 -4.175781 4.921875 -4.46875 4.609375 -4.6875 C 4.296875 -4.914062 3.972656 -5.03125 3.640625 -5.03125 C 3.390625 -5.03125 3.164062 -4.972656 2.96875 -4.859375 C 2.769531 -4.753906 2.597656 -4.613281 2.453125 -4.4375 C 2.304688 -4.257812 2.191406 -4.050781 2.109375 -3.8125 C 2.035156 -3.582031 2 -3.34375 2 -3.09375 C 2 -2.84375 2.039062 -2.601562 2.125 -2.375 C 2.21875 -2.15625 2.34375 -1.957031 2.5 -1.78125 C 2.65625 -1.613281 2.835938 -1.484375 3.046875 -1.390625 C 3.253906 -1.296875 3.484375 -1.25 3.734375 -1.25 Z M 3.734375 -1.25 "/></g></g></g><g fill="#ffffff" fill-opacity="1"><g transform="translate(171.52927, 101.919852)"><g><path d="M 0.734375 0 L 0.734375 -6.296875 L 2.34375 -6.296875 L 2.34375 0 Z M 0.734375 -7.171875 L 0.734375 -8.765625 L 2.34375 -8.765625 L 2.34375 -7.171875 Z M 0.734375 -7.171875 "/></g></g></g><g fill="#ffffff" fill-opacity="1"><g transform="translate(174.594083, 101.919852)"><g><path d="M 6.578125 0 L 4.96875 0 L 4.96875 -3.53125 C 4.96875 -4.039062 4.878906 -4.410156 4.703125 -4.640625 C 4.535156 -4.867188 4.296875 -4.984375 3.984375 -4.984375 C 3.816406 -4.984375 3.648438 -4.953125 3.484375 -4.890625 C 3.316406 -4.828125 3.15625 -4.738281 3 -4.625 C 2.851562 -4.507812 2.71875 -4.367188 2.59375 -4.203125 C 2.476562 -4.046875 2.394531 -3.867188 2.34375 -3.671875 L 2.34375 0 L 0.734375 0 L 0.734375 -6.296875 L 2.1875 -6.296875 L 2.1875 -5.125 C 2.414062 -5.53125 2.75 -5.84375 3.1875 -6.0625 C 3.632812 -6.289062 4.132812 -6.40625 4.6875 -6.40625 C 5.082031 -6.40625 5.398438 -6.332031 5.640625 -6.1875 C 5.890625 -6.039062 6.082031 -5.851562 6.21875 -5.625 C 6.351562 -5.394531 6.445312 -5.128906 6.5 -4.828125 C 6.550781 -4.535156 6.578125 -4.234375 6.578125 -3.921875 Z M 6.578125 0 "/></g></g></g><g fill="#ffffff" fill-opacity="1"><g transform="translate(181.853494, 101.919852)"><g><path d="M 3.65625 0.125 C 3.144531 0.125 2.6875 0.0390625 2.28125 -0.125 C 1.875 -0.300781 1.523438 -0.535156 1.234375 -0.828125 C 0.953125 -1.128906 0.734375 -1.476562 0.578125 -1.875 C 0.421875 -2.269531 0.34375 -2.679688 0.34375 -3.109375 C 0.34375 -3.554688 0.414062 -3.976562 0.5625 -4.375 C 0.71875 -4.769531 0.9375 -5.117188 1.21875 -5.421875 C 1.507812 -5.722656 1.859375 -5.960938 2.265625 -6.140625 C 2.679688 -6.316406 3.148438 -6.40625 3.671875 -6.40625 C 4.179688 -6.40625 4.632812 -6.316406 5.03125 -6.140625 C 5.4375 -5.960938 5.78125 -5.722656 6.0625 -5.421875 C 6.351562 -5.128906 6.570312 -4.785156 6.71875 -4.390625 C 6.863281 -4.003906 6.9375 -3.597656 6.9375 -3.171875 C 6.9375 -3.066406 6.9375 -2.96875 6.9375 -2.875 C 6.9375 -2.78125 6.925781 -2.695312 6.90625 -2.625 L 2.046875 -2.625 C 2.066406 -2.382812 2.125 -2.164062 2.21875 -1.96875 C 2.3125 -1.78125 2.4375 -1.617188 2.59375 -1.484375 C 2.75 -1.347656 2.921875 -1.242188 3.109375 -1.171875 C 3.304688 -1.097656 3.507812 -1.0625 3.71875 -1.0625 C 4.03125 -1.0625 4.328125 -1.140625 4.609375 -1.296875 C 4.898438 -1.453125 5.097656 -1.65625 5.203125 -1.90625 L 6.578125 -1.53125 C 6.347656 -1.050781 5.976562 -0.65625 5.46875 -0.34375 C 4.957031 -0.03125 4.351562 0.125 3.65625 0.125 Z M 5.28125 -3.671875 C 5.25 -4.148438 5.078125 -4.53125 4.765625 -4.8125 C 4.453125 -5.09375 4.078125 -5.234375 3.640625 -5.234375 C 3.421875 -5.234375 3.21875 -5.195312 3.03125 -5.125 C 2.84375 -5.050781 2.675781 -4.945312 2.53125 -4.8125 C 2.382812 -4.675781 2.265625 -4.507812 2.171875 -4.3125 C 2.085938 -4.125 2.035156 -3.910156 2.015625 -3.671875 Z M 5.28125 -3.671875 "/></g></g></g><g fill="#ffffff" fill-opacity="1"><g transform="translate(189.052806, 101.919852)"><g><path d="M 3.65625 0.125 C 3.144531 0.125 2.6875 0.0390625 2.28125 -0.125 C 1.875 -0.300781 1.523438 -0.535156 1.234375 -0.828125 C 0.953125 -1.128906 0.734375 -1.476562 0.578125 -1.875 C 0.421875 -2.269531 0.34375 -2.679688 0.34375 -3.109375 C 0.34375 -3.554688 0.414062 -3.976562 0.5625 -4.375 C 0.71875 -4.769531 0.9375 -5.117188 1.21875 -5.421875 C 1.507812 -5.722656 1.859375 -5.960938 2.265625 -6.140625 C 2.679688 -6.316406 3.148438 -6.40625 3.671875 -6.40625 C 4.179688 -6.40625 4.632812 -6.316406 5.03125 -6.140625 C 5.4375 -5.960938 5.78125 -5.722656 6.0625 -5.421875 C 6.351562 -5.128906 6.570312 -4.785156 6.71875 -4.390625 C 6.863281 -4.003906 6.9375 -3.597656 6.9375 -3.171875 C 6.9375 -3.066406 6.9375 -2.96875 6.9375 -2.875 C 6.9375 -2.78125 6.925781 -2.695312 6.90625 -2.625 L 2.046875 -2.625 C 2.066406 -2.382812 2.125 -2.164062 2.21875 -1.96875 C 2.3125 -1.78125 2.4375 -1.617188 2.59375 -1.484375 C 2.75 -1.347656 2.921875 -1.242188 3.109375 -1.171875 C 3.304688 -1.097656 3.507812 -1.0625 3.71875 -1.0625 C 4.03125 -1.0625 4.328125 -1.140625 4.609375 -1.296875 C 4.898438 -1.453125 5.097656 -1.65625 5.203125 -1.90625 L 6.578125 -1.53125 C 6.347656 -1.050781 5.976562 -0.65625 5.46875 -0.34375 C 4.957031 -0.03125 4.351562 0.125 3.65625 0.125 Z M 5.28125 -3.671875 C 5.25 -4.148438 5.078125 -4.53125 4.765625 -4.8125 C 4.453125 -5.09375 4.078125 -5.234375 3.640625 -5.234375 C 3.421875 -5.234375 3.21875 -5.195312 3.03125 -5.125 C 2.84375 -5.050781 2.675781 -4.945312 2.53125 -4.8125 C 2.382812 -4.675781 2.265625 -4.507812 2.171875 -4.3125 C 2.085938 -4.125 2.035156 -3.910156 2.015625 -3.671875 Z M 5.28125 -3.671875 "/></g></g></g><g fill="#ffffff" fill-opacity="1"><g transform="translate(196.252117, 101.919852)"><g><path d="M 4.484375 -4.90625 C 3.992188 -4.894531 3.554688 -4.796875 3.171875 -4.609375 C 2.785156 -4.429688 2.507812 -4.164062 2.34375 -3.8125 L 2.34375 0 L 0.734375 0 L 0.734375 -6.296875 L 2.203125 -6.296875 L 2.203125 -4.953125 C 2.316406 -5.171875 2.445312 -5.363281 2.59375 -5.53125 C 2.75 -5.707031 2.914062 -5.859375 3.09375 -5.984375 C 3.269531 -6.109375 3.445312 -6.203125 3.625 -6.265625 C 3.8125 -6.335938 3.988281 -6.375 4.15625 -6.375 C 4.25 -6.375 4.316406 -6.375 4.359375 -6.375 C 4.398438 -6.375 4.441406 -6.375 4.484375 -6.375 Z M 4.484375 -4.90625 "/></g></g></g><g fill="#ffffff" fill-opacity="1"><g transform="translate(200.903425, 101.919852)"><g/></g></g><g fill="#ffffff" fill-opacity="1"><g transform="translate(203.78796, 101.919852)"><g><path d="M 0.953125 1.5625 L 0.953125 -9.3125 L 2.3125 -9.3125 L 2.3125 1.5625 Z M 0.953125 1.5625 "/></g></g></g><g fill="#ffffff" fill-opacity="1"><g transform="translate(207.057096, 101.919852)"><g/></g></g><g fill="#ffffff" fill-opacity="1"><g transform="translate(209.941625, 101.919852)"><g><path d="M 0.890625 0 L 0.890625 -8.53125 L 3.984375 -8.53125 C 4.679688 -8.53125 5.289062 -8.414062 5.8125 -8.1875 C 6.34375 -7.96875 6.785156 -7.664062 7.140625 -7.28125 C 7.492188 -6.894531 7.753906 -6.441406 7.921875 -5.921875 C 8.097656 -5.410156 8.1875 -4.863281 8.1875 -4.28125 C 8.1875 -3.625 8.085938 -3.035156 7.890625 -2.515625 C 7.703125 -1.992188 7.421875 -1.546875 7.046875 -1.171875 C 6.679688 -0.796875 6.238281 -0.503906 5.71875 -0.296875 C 5.207031 -0.0976562 4.628906 0 3.984375 0 Z M 6.53125 -4.28125 C 6.53125 -4.6875 6.472656 -5.0625 6.359375 -5.40625 C 6.242188 -5.75 6.078125 -6.046875 5.859375 -6.296875 C 5.648438 -6.546875 5.382812 -6.738281 5.0625 -6.875 C 4.75 -7.007812 4.390625 -7.078125 3.984375 -7.078125 L 2.546875 -7.078125 L 2.546875 -1.453125 L 3.984375 -1.453125 C 4.398438 -1.453125 4.765625 -1.523438 5.078125 -1.671875 C 5.390625 -1.816406 5.648438 -2.015625 5.859375 -2.265625 C 6.078125 -2.515625 6.242188 -2.8125 6.359375 -3.15625 C 6.472656 -3.5 6.53125 -3.875 6.53125 -4.28125 Z M 6.53125 -4.28125 "/></g></g></g><g fill="#ffffff" fill-opacity="1"><g transform="translate(218.547146, 101.919852)"><g><path d="M 2.453125 0.125 C 2.148438 0.125 1.863281 0.0703125 1.59375 -0.03125 C 1.332031 -0.132812 1.101562 -0.273438 0.90625 -0.453125 C 0.71875 -0.628906 0.566406 -0.835938 0.453125 -1.078125 C 0.347656 -1.316406 0.296875 -1.582031 0.296875 -1.875 C 0.296875 -2.164062 0.363281 -2.4375 0.5 -2.6875 C 0.632812 -2.945312 0.816406 -3.164062 1.046875 -3.34375 C 1.285156 -3.519531 1.566406 -3.65625 1.890625 -3.75 C 2.222656 -3.851562 2.585938 -3.90625 2.984375 -3.90625 C 3.265625 -3.90625 3.535156 -3.878906 3.796875 -3.828125 C 4.066406 -3.785156 4.304688 -3.71875 4.515625 -3.625 L 4.515625 -3.984375 C 4.515625 -4.398438 4.394531 -4.71875 4.15625 -4.9375 C 3.925781 -5.164062 3.578125 -5.28125 3.109375 -5.28125 C 2.773438 -5.28125 2.445312 -5.21875 2.125 -5.09375 C 1.800781 -4.976562 1.472656 -4.804688 1.140625 -4.578125 L 0.65625 -5.59375 C 1.457031 -6.132812 2.328125 -6.40625 3.265625 -6.40625 C 4.171875 -6.40625 4.875 -6.179688 5.375 -5.734375 C 5.875 -5.296875 6.125 -4.65625 6.125 -3.8125 L 6.125 -1.84375 C 6.125 -1.675781 6.15625 -1.554688 6.21875 -1.484375 C 6.28125 -1.410156 6.378906 -1.375 6.515625 -1.375 L 6.515625 0 C 6.242188 0.0507812 6.003906 0.078125 5.796875 0.078125 C 5.492188 0.078125 5.257812 0.0078125 5.09375 -0.125 C 4.9375 -0.257812 4.835938 -0.4375 4.796875 -0.65625 L 4.765625 -1.015625 C 4.484375 -0.640625 4.140625 -0.351562 3.734375 -0.15625 C 3.335938 0.03125 2.910156 0.125 2.453125 0.125 Z M 2.90625 -1.0625 C 3.175781 -1.0625 3.429688 -1.109375 3.671875 -1.203125 C 3.921875 -1.296875 4.113281 -1.425781 4.25 -1.59375 C 4.425781 -1.726562 4.515625 -1.878906 4.515625 -2.046875 L 4.515625 -2.765625 C 4.328125 -2.835938 4.117188 -2.894531 3.890625 -2.9375 C 3.671875 -2.976562 3.457031 -3 3.25 -3 C 2.832031 -3 2.488281 -2.90625 2.21875 -2.71875 C 1.957031 -2.53125 1.828125 -2.289062 1.828125 -2 C 1.828125 -1.726562 1.929688 -1.503906 2.140625 -1.328125 C 2.347656 -1.148438 2.601562 -1.0625 2.90625 -1.0625 Z M 2.90625 -1.0625 "/></g></g></g><g fill="#ffffff" fill-opacity="1"><g transform="translate(225.445988, 101.919852)"><g><path d="M 4.5 -0.328125 C 4.289062 -0.234375 4.03125 -0.132812 3.71875 -0.03125 C 3.40625 0.0625 3.078125 0.109375 2.734375 0.109375 C 2.503906 0.109375 2.289062 0.078125 2.09375 0.015625 C 1.894531 -0.0351562 1.722656 -0.125 1.578125 -0.25 C 1.429688 -0.375 1.3125 -0.53125 1.21875 -0.71875 C 1.132812 -0.914062 1.09375 -1.15625 1.09375 -1.4375 L 1.09375 -5.0625 L 0.265625 -5.0625 L 0.265625 -6.296875 L 1.09375 -6.296875 L 1.09375 -8.34375 L 2.703125 -8.34375 L 2.703125 -6.296875 L 4.03125 -6.296875 L 4.03125 -5.0625 L 2.703125 -5.0625 L 2.703125 -1.984375 C 2.703125 -1.753906 2.757812 -1.59375 2.875 -1.5 C 2.988281 -1.414062 3.128906 -1.375 3.296875 -1.375 C 3.472656 -1.375 3.640625 -1.398438 3.796875 -1.453125 C 3.953125 -1.503906 4.082031 -1.550781 4.1875 -1.59375 Z M 4.5 -0.328125 "/></g></g></g><g fill="#ffffff" fill-opacity="1"><g transform="translate(230.061242, 101.919852)"><g><path d="M 2.453125 0.125 C 2.148438 0.125 1.863281 0.0703125 1.59375 -0.03125 C 1.332031 -0.132812 1.101562 -0.273438 0.90625 -0.453125 C 0.71875 -0.628906 0.566406 -0.835938 0.453125 -1.078125 C 0.347656 -1.316406 0.296875 -1.582031 0.296875 -1.875 C 0.296875 -2.164062 0.363281 -2.4375 0.5 -2.6875 C 0.632812 -2.945312 0.816406 -3.164062 1.046875 -3.34375 C 1.285156 -3.519531 1.566406 -3.65625 1.890625 -3.75 C 2.222656 -3.851562 2.585938 -3.90625 2.984375 -3.90625 C 3.265625 -3.90625 3.535156 -3.878906 3.796875 -3.828125 C 4.066406 -3.785156 4.304688 -3.71875 4.515625 -3.625 L 4.515625 -3.984375 C 4.515625 -4.398438 4.394531 -4.71875 4.15625 -4.9375 C 3.925781 -5.164062 3.578125 -5.28125 3.109375 -5.28125 C 2.773438 -5.28125 2.445312 -5.21875 2.125 -5.09375 C 1.800781 -4.976562 1.472656 -4.804688 1.140625 -4.578125 L 0.65625 -5.59375 C 1.457031 -6.132812 2.328125 -6.40625 3.265625 -6.40625 C 4.171875 -6.40625 4.875 -6.179688 5.375 -5.734375 C 5.875 -5.296875 6.125 -4.65625 6.125 -3.8125 L 6.125 -1.84375 C 6.125 -1.675781 6.15625 -1.554688 6.21875 -1.484375 C 6.28125 -1.410156 6.378906 -1.375 6.515625 -1.375 L 6.515625 0 C 6.242188 0.0507812 6.003906 0.078125 5.796875 0.078125 C 5.492188 0.078125 5.257812 0.0078125 5.09375 -0.125 C 4.9375 -0.257812 4.835938 -0.4375 4.796875 -0.65625 L 4.765625 -1.015625 C 4.484375 -0.640625 4.140625 -0.351562 3.734375 -0.15625 C 3.335938 0.03125 2.910156 0.125 2.453125 0.125 Z M 2.90625 -1.0625 C 3.175781 -1.0625 3.429688 -1.109375 3.671875 -1.203125 C 3.921875 -1.296875 4.113281 -1.425781 4.25 -1.59375 C 4.425781 -1.726562 4.515625 -1.878906 4.515625 -2.046875 L 4.515625 -2.765625 C 4.328125 -2.835938 4.117188 -2.894531 3.890625 -2.9375 C 3.671875 -2.976562 3.457031 -3 3.25 -3 C 2.832031 -3 2.488281 -2.90625 2.21875 -2.71875 C 1.957031 -2.53125 1.828125 -2.289062 1.828125 -2 C 1.828125 -1.726562 1.929688 -1.503906 2.140625 -1.328125 C 2.347656 -1.148438 2.601562 -1.0625 2.90625 -1.0625 Z M 2.90625 -1.0625 "/></g></g></g><g fill="#ffffff" fill-opacity="1"><g transform="translate(236.960083, 101.919852)"><g/></g></g><g fill="#ffffff" fill-opacity="1"><g transform="translate(239.844626, 101.919852)"><g><path d="M 3.3125 -8.53125 L 4.78125 -8.53125 L 8.03125 0 L 6.3125 0 L 5.53125 -2.125 L 2.546875 -2.125 L 1.765625 0 L 0.0625 0 Z M 5.234375 -3.296875 L 4.046875 -6.640625 L 2.828125 -3.296875 Z M 5.234375 -3.296875 "/></g></g></g><g fill="#ffffff" fill-opacity="1"><g transform="translate(247.921316, 101.919852)"><g><path d="M 6.578125 0 L 4.96875 0 L 4.96875 -3.53125 C 4.96875 -4.039062 4.878906 -4.410156 4.703125 -4.640625 C 4.535156 -4.867188 4.296875 -4.984375 3.984375 -4.984375 C 3.816406 -4.984375 3.648438 -4.953125 3.484375 -4.890625 C 3.316406 -4.828125 3.15625 -4.738281 3 -4.625 C 2.851562 -4.507812 2.71875 -4.367188 2.59375 -4.203125 C 2.476562 -4.046875 2.394531 -3.867188 2.34375 -3.671875 L 2.34375 0 L 0.734375 0 L 0.734375 -6.296875 L 2.1875 -6.296875 L 2.1875 -5.125 C 2.414062 -5.53125 2.75 -5.84375 3.1875 -6.0625 C 3.632812 -6.289062 4.132812 -6.40625 4.6875 -6.40625 C 5.082031 -6.40625 5.398438 -6.332031 5.640625 -6.1875 C 5.890625 -6.039062 6.082031 -5.851562 6.21875 -5.625 C 6.351562 -5.394531 6.445312 -5.128906 6.5 -4.828125 C 6.550781 -4.535156 6.578125 -4.234375 6.578125 -3.921875 Z M 6.578125 0 "/></g></g></g><g fill="#ffffff" fill-opacity="1"><g transform="translate(255.180727, 101.919852)"><g><path d="M 2.453125 0.125 C 2.148438 0.125 1.863281 0.0703125 1.59375 -0.03125 C 1.332031 -0.132812 1.101562 -0.273438 0.90625 -0.453125 C 0.71875 -0.628906 0.566406 -0.835938 0.453125 -1.078125 C 0.347656 -1.316406 0.296875 -1.582031 0.296875 -1.875 C 0.296875 -2.164062 0.363281 -2.4375 0.5 -2.6875 C 0.632812 -2.945312 0.816406 -3.164062 1.046875 -3.34375 C 1.285156 -3.519531 1.566406 -3.65625 1.890625 -3.75 C 2.222656 -3.851562 2.585938 -3.90625 2.984375 -3.90625 C 3.265625 -3.90625 3.535156 -3.878906 3.796875 -3.828125 C 4.066406 -3.785156 4.304688 -3.71875 4.515625 -3.625 L 4.515625 -3.984375 C 4.515625 -4.398438 4.394531 -4.71875 4.15625 -4.9375 C 3.925781 -5.164062 3.578125 -5.28125 3.109375 -5.28125 C 2.773438 -5.28125 2.445312 -5.21875 2.125 -5.09375 C 1.800781 -4.976562 1.472656 -4.804688 1.140625 -4.578125 L 0.65625 -5.59375 C 1.457031 -6.132812 2.328125 -6.40625 3.265625 -6.40625 C 4.171875 -6.40625 4.875 -6.179688 5.375 -5.734375 C 5.875 -5.296875 6.125 -4.65625 6.125 -3.8125 L 6.125 -1.84375 C 6.125 -1.675781 6.15625 -1.554688 6.21875 -1.484375 C 6.28125 -1.410156 6.378906 -1.375 6.515625 -1.375 L 6.515625 0 C 6.242188 0.0507812 6.003906 0.078125 5.796875 0.078125 C 5.492188 0.078125 5.257812 0.0078125 5.09375 -0.125 C 4.9375 -0.257812 4.835938 -0.4375 4.796875 -0.65625 L 4.765625 -1.015625 C 4.484375 -0.640625 4.140625 -0.351562 3.734375 -0.15625 C 3.335938 0.03125 2.910156 0.125 2.453125 0.125 Z M 2.90625 -1.0625 C 3.175781 -1.0625 3.429688 -1.109375 3.671875 -1.203125 C 3.921875 -1.296875 4.113281 -1.425781 4.25 -1.59375 C 4.425781 -1.726562 4.515625 -1.878906 4.515625 -2.046875 L 4.515625 -2.765625 C 4.328125 -2.835938 4.117188 -2.894531 3.890625 -2.9375 C 3.671875 -2.976562 3.457031 -3 3.25 -3 C 2.832031 -3 2.488281 -2.90625 2.21875 -2.71875 C 1.957031 -2.53125 1.828125 -2.289062 1.828125 -2 C 1.828125 -1.726562 1.929688 -1.503906 2.140625 -1.328125 C 2.347656 -1.148438 2.601562 -1.0625 2.90625 -1.0625 Z M 2.90625 -1.0625 "/></g></g></g><g fill="#ffffff" fill-opacity="1"><g transform="translate(262.079569, 101.919852)"><g><path d="M 0.71875 -8.765625 L 2.328125 -8.765625 L 2.328125 -2.015625 C 2.328125 -1.785156 2.382812 -1.601562 2.5 -1.46875 C 2.613281 -1.34375 2.773438 -1.28125 2.984375 -1.28125 C 3.078125 -1.28125 3.179688 -1.296875 3.296875 -1.328125 C 3.410156 -1.359375 3.519531 -1.398438 3.625 -1.453125 L 3.84375 -0.234375 C 3.625 -0.128906 3.367188 -0.0507812 3.078125 0 C 2.796875 0.0625 2.539062 0.09375 2.3125 0.09375 C 1.800781 0.09375 1.40625 -0.0351562 1.125 -0.296875 C 0.851562 -0.566406 0.71875 -0.953125 0.71875 -1.453125 Z M 0.71875 -8.765625 "/></g></g></g><g fill="#ffffff" fill-opacity="1"><g transform="translate(265.889552, 101.919852)"><g><path d="M 0.859375 1.21875 C 0.992188 1.257812 1.125 1.289062 1.25 1.3125 C 1.382812 1.332031 1.5 1.34375 1.59375 1.34375 C 1.695312 1.34375 1.789062 1.320312 1.875 1.28125 C 1.957031 1.238281 2.035156 1.164062 2.109375 1.0625 C 2.179688 0.96875 2.253906 0.832031 2.328125 0.65625 C 2.398438 0.476562 2.476562 0.257812 2.5625 0 L 0.078125 -6.296875 L 1.734375 -6.296875 L 3.4375 -1.390625 L 4.953125 -6.296875 L 6.46875 -6.296875 L 3.828125 1.25 C 3.671875 1.6875 3.40625 2.046875 3.03125 2.328125 C 2.664062 2.609375 2.210938 2.75 1.671875 2.75 C 1.546875 2.75 1.414062 2.738281 1.28125 2.71875 C 1.144531 2.695312 1.003906 2.664062 0.859375 2.625 Z M 0.859375 1.21875 "/></g></g></g><g fill="#ffffff" fill-opacity="1"><g transform="translate(272.499933, 101.919852)"><g><path d="M 3.109375 0.125 C 2.578125 0.125 2.0625 0.0390625 1.5625 -0.125 C 1.0625 -0.300781 0.628906 -0.546875 0.265625 -0.859375 L 0.859375 -1.859375 C 1.242188 -1.585938 1.617188 -1.378906 1.984375 -1.234375 C 2.347656 -1.097656 2.710938 -1.03125 3.078125 -1.03125 C 3.398438 -1.03125 3.648438 -1.085938 3.828125 -1.203125 C 4.015625 -1.328125 4.109375 -1.503906 4.109375 -1.734375 C 4.109375 -1.953125 4 -2.113281 3.78125 -2.21875 C 3.5625 -2.320312 3.210938 -2.441406 2.734375 -2.578125 C 2.316406 -2.691406 1.960938 -2.800781 1.671875 -2.90625 C 1.390625 -3.007812 1.160156 -3.125 0.984375 -3.25 C 0.804688 -3.382812 0.675781 -3.539062 0.59375 -3.71875 C 0.519531 -3.894531 0.484375 -4.101562 0.484375 -4.34375 C 0.484375 -4.65625 0.546875 -4.941406 0.671875 -5.203125 C 0.796875 -5.460938 0.96875 -5.679688 1.1875 -5.859375 C 1.414062 -6.035156 1.675781 -6.171875 1.96875 -6.265625 C 2.269531 -6.367188 2.597656 -6.421875 2.953125 -6.421875 C 3.429688 -6.421875 3.875 -6.347656 4.28125 -6.203125 C 4.695312 -6.066406 5.078125 -5.847656 5.421875 -5.546875 L 4.765625 -4.578125 C 4.453125 -4.816406 4.144531 -4.992188 3.84375 -5.109375 C 3.539062 -5.222656 3.238281 -5.28125 2.9375 -5.28125 C 2.664062 -5.28125 2.4375 -5.222656 2.25 -5.109375 C 2.070312 -4.992188 1.984375 -4.8125 1.984375 -4.5625 C 1.984375 -4.445312 2.003906 -4.351562 2.046875 -4.28125 C 2.085938 -4.21875 2.15625 -4.15625 2.25 -4.09375 C 2.351562 -4.039062 2.484375 -3.988281 2.640625 -3.9375 C 2.796875 -3.882812 2.988281 -3.828125 3.21875 -3.765625 C 3.65625 -3.660156 4.023438 -3.550781 4.328125 -3.4375 C 4.640625 -3.320312 4.894531 -3.191406 5.09375 -3.046875 C 5.289062 -2.898438 5.429688 -2.734375 5.515625 -2.546875 C 5.609375 -2.359375 5.65625 -2.132812 5.65625 -1.875 C 5.65625 -1.257812 5.425781 -0.769531 4.96875 -0.40625 C 4.519531 -0.0507812 3.898438 0.125 3.109375 0.125 Z M 3.109375 0.125 "/></g></g></g><g fill="#ffffff" fill-opacity="1"><g transform="translate(278.473319, 101.919852)"><g><path d="M 4.5 -0.328125 C 4.289062 -0.234375 4.03125 -0.132812 3.71875 -0.03125 C 3.40625 0.0625 3.078125 0.109375 2.734375 0.109375 C 2.503906 0.109375 2.289062 0.078125 2.09375 0.015625 C 1.894531 -0.0351562 1.722656 -0.125 1.578125 -0.25 C 1.429688 -0.375 1.3125 -0.53125 1.21875 -0.71875 C 1.132812 -0.914062 1.09375 -1.15625 1.09375 -1.4375 L 1.09375 -5.0625 L 0.265625 -5.0625 L 0.265625 -6.296875 L 1.09375 -6.296875 L 1.09375 -8.34375 L 2.703125 -8.34375 L 2.703125 -6.296875 L 4.03125 -6.296875 L 4.03125 -5.0625 L 2.703125 -5.0625 L 2.703125 -1.984375 C 2.703125 -1.753906 2.757812 -1.59375 2.875 -1.5 C 2.988281 -1.414062 3.128906 -1.375 3.296875 -1.375 C 3.472656 -1.375 3.640625 -1.398438 3.796875 -1.453125 C 3.953125 -1.503906 4.082031 -1.550781 4.1875 -1.59375 Z M 4.5 -0.328125 "/></g></g></g></svg>