<svg xmlns="http://www.w3.org/2000/svg" xmlns:xlink="http://www.w3.org/1999/xlink" width="50" zoomAndPan="magnify" viewBox="0 0 37.5 37.499999" height="50" preserveAspectRatio="xMidYMid meet" version="1.0"><defs><clipPath id="7737d9f447"><path d="M 1.109375 1.109375 L 35.894531 1.109375 L 35.894531 35.894531 L 1.109375 35.894531 Z M 1.109375 1.109375 " clip-rule="nonzero"/></clipPath></defs><g clip-path="url(#7737d9f447)"><path fill="#dae7ef" d="M 18.503906 1.414062 C 27.933594 1.414062 35.589844 9.074219 35.589844 18.503906 C 35.589844 27.933594 27.933594 35.589844 18.503906 35.589844 C 9.074219 35.589844 1.414062 27.933594 1.414062 18.503906 C 1.414062 9.074219 9.074219 1.414062 18.503906 1.414062 " fill-opacity="1" fill-rule="evenodd"/><path fill="#000000" d="M 18.503906 1.109375 C 8.902344 1.109375 1.109375 8.902344 1.109375 18.503906 C 1.109375 28.101562 8.902344 35.894531 18.503906 35.894531 C 28.101562 35.894531 35.894531 28.101562 35.894531 18.503906 C 35.894531 8.902344 28.101562 1.109375 18.503906 1.109375 Z M 18.503906 1.71875 C 27.765625 1.71875 35.285156 9.238281 35.285156 18.503906 C 35.285156 27.765625 27.765625 35.285156 18.503906 35.285156 C 9.238281 35.285156 1.71875 27.765625 1.71875 18.503906 C 1.71875 9.238281 9.238281 1.71875 18.503906 1.71875 " fill-opacity="1" fill-rule="evenodd"/></g><path fill="#f9f6f9" d="M 18.503906 3.855469 C 26.585938 3.855469 33.148438 10.417969 33.148438 18.503906 C 33.148438 26.585938 26.585938 33.148438 18.503906 33.148438 C 10.417969 33.148438 3.855469 26.585938 3.855469 18.503906 C 3.855469 10.417969 10.417969 3.855469 18.503906 3.855469 " fill-opacity="1" fill-rule="evenodd"/><path fill="#000000" d="M 18.503906 3.550781 C 10.25 3.550781 3.550781 10.25 3.550781 18.503906 C 3.550781 26.757812 10.25 33.457031 18.503906 33.457031 C 26.757812 33.457031 33.457031 26.757812 33.457031 18.503906 C 33.457031 10.25 26.757812 3.550781 18.503906 3.550781 Z M 18.503906 4.160156 C 26.417969 4.160156 32.84375 10.589844 32.84375 18.503906 C 32.84375 26.417969 26.417969 32.84375 18.503906 32.84375 C 10.589844 32.84375 4.160156 26.417969 4.160156 18.503906 C 4.160156 10.589844 10.589844 4.160156 18.503906 4.160156 " fill-opacity="1" fill-rule="evenodd"/><path fill="#738b95" d="M 14.199219 8.394531 C 10.273438 10.070312 7.519531 13.964844 7.519531 18.503906 C 7.519531 24.566406 12.441406 29.488281 18.503906 29.488281 C 23.039062 29.488281 26.933594 26.734375 28.609375 22.808594 C 26.949219 23.945312 24.9375 24.605469 22.773438 24.605469 C 17.050781 24.605469 12.402344 19.957031 12.402344 14.230469 C 12.402344 12.070312 13.0625 10.058594 14.199219 8.394531 " fill-opacity="1" fill-rule="evenodd"/><path fill="#000000" d="M 14.449219 8.566406 C 14.527344 8.453125 14.519531 8.304688 14.433594 8.199219 C 14.347656 8.097656 14.203125 8.0625 14.078125 8.113281 C 10.046875 9.835938 7.214844 13.84375 7.214844 18.503906 C 7.214844 24.734375 12.273438 29.792969 18.503906 29.792969 C 23.164062 29.792969 27.171875 26.960938 28.890625 22.929688 C 28.945312 22.800781 28.910156 22.660156 28.804688 22.574219 C 28.703125 22.488281 28.550781 22.480469 28.441406 22.554688 C 26.824219 23.65625 24.875 24.300781 22.773438 24.300781 C 17.21875 24.300781 12.707031 19.789062 12.707031 14.230469 C 12.707031 12.132812 13.347656 10.179688 14.449219 8.566406 Z M 13.394531 9.121094 C 10.074219 10.9375 7.824219 14.457031 7.824219 18.503906 C 7.824219 24.398438 12.609375 29.183594 18.503906 29.183594 C 22.546875 29.183594 26.070312 26.929688 27.882812 23.613281 C 26.367188 24.4375 24.625 24.910156 22.773438 24.910156 C 16.878906 24.910156 12.09375 20.125 12.09375 14.230469 C 12.09375 12.382812 12.566406 10.640625 13.394531 9.121094 " fill-opacity="1" fill-rule="evenodd"/></svg>