<svg xmlns="http://www.w3.org/2000/svg" xmlns:xlink="http://www.w3.org/1999/xlink" width="50" zoomAndPan="magnify" viewBox="0 0 37.5 37.499999" height="50" preserveAspectRatio="xMidYMid meet" version="1.0"><defs><clipPath id="a74421614b"><path d="M 0 0 L 37.007812 0 L 37.007812 37.007812 L 0 37.007812 Z M 0 0 " clip-rule="nonzero"/></clipPath><clipPath id="ce2451b18b"><path d="M 1.554688 1.554688 L 35.601562 1.554688 L 35.601562 35.601562 L 1.554688 35.601562 Z M 1.554688 1.554688 " clip-rule="nonzero"/></clipPath></defs><g clip-path="url(#a74421614b)"><path fill="#ffffff" d="M 0 0 L 37.007812 0 L 37.007812 37.007812 L 0 37.007812 Z M 0 0 " fill-opacity="1" fill-rule="nonzero"/><path fill="#ffffff" d="M 0 0 L 37.007812 0 L 37.007812 37.007812 L 0 37.007812 Z M 0 0 " fill-opacity="1" fill-rule="nonzero"/></g><g clip-path="url(#ce2451b18b)"><path fill="#dae7ef" d="M 18.578125 1.851562 C 27.808594 1.851562 35.300781 9.347656 35.300781 18.578125 C 35.300781 27.808594 27.808594 35.300781 18.578125 35.300781 C 9.347656 35.300781 1.851562 27.808594 1.851562 18.578125 C 1.851562 9.347656 9.347656 1.851562 18.578125 1.851562 " fill-opacity="1" fill-rule="evenodd"/><path fill="#000000" d="M 18.578125 1.554688 C 9.179688 1.554688 1.554688 9.179688 1.554688 18.578125 C 1.554688 27.972656 9.179688 35.601562 18.578125 35.601562 C 27.972656 35.601562 35.601562 27.972656 35.601562 18.578125 C 35.601562 9.179688 27.972656 1.554688 18.578125 1.554688 Z M 18.578125 2.152344 C 27.644531 2.152344 35.003906 9.511719 35.003906 18.578125 C 35.003906 27.644531 27.644531 35.003906 18.578125 35.003906 C 9.511719 35.003906 2.152344 27.644531 2.152344 18.578125 C 2.152344 9.511719 9.511719 2.152344 18.578125 2.152344 " fill-opacity="1" fill-rule="evenodd"/></g><path fill="#f9f6f9" d="M 18.578125 4.242188 C 26.488281 4.242188 32.914062 10.664062 32.914062 18.578125 C 32.914062 26.488281 26.488281 32.914062 18.578125 32.914062 C 10.664062 32.914062 4.242188 26.488281 4.242188 18.578125 C 4.242188 10.664062 10.664062 4.242188 18.578125 4.242188 " fill-opacity="1" fill-rule="evenodd"/><path fill="#000000" d="M 18.578125 3.945312 C 10.5 3.945312 3.945312 10.5 3.945312 18.578125 C 3.945312 26.65625 10.5 33.210938 18.578125 33.210938 C 26.65625 33.210938 33.210938 26.65625 33.210938 18.578125 C 33.210938 10.5 26.65625 3.945312 18.578125 3.945312 Z M 18.578125 4.539062 C 26.324219 4.539062 32.613281 10.832031 32.613281 18.578125 C 32.613281 26.324219 26.324219 32.613281 18.578125 32.613281 C 10.832031 32.613281 4.539062 26.324219 4.539062 18.578125 C 4.539062 10.832031 10.832031 4.539062 18.578125 4.539062 " fill-opacity="1" fill-rule="evenodd"/><path fill="#ffe07d" d="M 18.578125 13.800781 C 21.214844 13.800781 23.355469 15.941406 23.355469 18.578125 C 23.355469 21.214844 21.214844 23.355469 18.578125 23.355469 C 15.941406 23.355469 13.800781 21.214844 13.800781 18.578125 C 13.800781 15.941406 15.941406 13.800781 18.578125 13.800781 " fill-opacity="1" fill-rule="evenodd"/><path fill="#000000" d="M 18.578125 13.5 C 15.773438 13.5 13.5 15.773438 13.5 18.578125 C 13.5 21.378906 15.773438 23.65625 18.578125 23.65625 C 21.378906 23.65625 23.65625 21.378906 23.65625 18.578125 C 23.65625 15.773438 21.378906 13.5 18.578125 13.5 Z M 18.578125 14.097656 C 21.050781 14.097656 23.058594 16.105469 23.058594 18.578125 C 23.058594 21.050781 21.050781 23.058594 18.578125 23.058594 C 16.105469 23.058594 14.097656 21.050781 14.097656 18.578125 C 14.097656 16.105469 16.105469 14.097656 18.578125 14.097656 " fill-opacity="1" fill-rule="evenodd"/><path fill="#ffe07d" d="M 17.382812 9.019531 L 17.382812 10.214844 C 17.382812 10.875 17.917969 11.410156 18.578125 11.410156 C 19.238281 11.410156 19.773438 10.875 19.773438 10.214844 L 19.773438 9.019531 C 19.773438 8.359375 19.238281 7.824219 18.578125 7.824219 C 17.917969 7.824219 17.382812 8.359375 17.382812 9.019531 " fill-opacity="1" fill-rule="evenodd"/><path fill="#000000" d="M 17.085938 9.019531 L 17.085938 10.214844 C 17.085938 11.039062 17.753906 11.707031 18.578125 11.707031 C 19.402344 11.707031 20.070312 11.039062 20.070312 10.214844 L 20.070312 9.019531 C 20.070312 8.195312 19.402344 7.527344 18.578125 7.527344 C 17.753906 7.527344 17.085938 8.195312 17.085938 9.019531 Z M 17.679688 9.019531 C 17.679688 8.527344 18.082031 8.125 18.578125 8.125 C 19.070312 8.125 19.472656 8.527344 19.472656 9.019531 L 19.472656 10.214844 C 19.472656 10.710938 19.070312 11.109375 18.578125 11.109375 C 18.082031 11.109375 17.679688 10.710938 17.679688 10.214844 L 17.679688 9.019531 " fill-opacity="1" fill-rule="evenodd"/><path fill="#ffe07d" d="M 19.773438 28.132812 L 19.773438 26.941406 C 19.773438 26.277344 19.238281 25.746094 18.578125 25.746094 C 17.917969 25.746094 17.382812 26.277344 17.382812 26.941406 L 17.382812 28.132812 C 17.382812 28.792969 17.917969 29.328125 18.578125 29.328125 C 19.238281 29.328125 19.773438 28.792969 19.773438 28.132812 " fill-opacity="1" fill-rule="evenodd"/><path fill="#000000" d="M 20.070312 28.132812 L 20.070312 26.941406 C 20.070312 26.117188 19.402344 25.445312 18.578125 25.445312 C 17.753906 25.445312 17.085938 26.117188 17.085938 26.941406 L 17.085938 28.132812 C 17.085938 28.957031 17.753906 29.628906 18.578125 29.628906 C 19.402344 29.628906 20.070312 28.957031 20.070312 28.132812 Z M 19.472656 28.132812 C 19.472656 28.628906 19.070312 29.03125 18.578125 29.03125 C 18.082031 29.03125 17.679688 28.628906 17.679688 28.132812 L 17.679688 26.941406 C 17.679688 26.445312 18.082031 26.042969 18.578125 26.042969 C 19.070312 26.042969 19.472656 26.445312 19.472656 26.941406 L 19.472656 28.132812 " fill-opacity="1" fill-rule="evenodd"/><path fill="#ffe07d" d="M 28.132812 17.382812 L 26.941406 17.382812 C 26.277344 17.382812 25.746094 17.917969 25.746094 18.578125 C 25.746094 19.238281 26.277344 19.773438 26.941406 19.773438 L 28.132812 19.773438 C 28.792969 19.773438 29.328125 19.238281 29.328125 18.578125 C 29.328125 17.917969 28.792969 17.382812 28.132812 17.382812 " fill-opacity="1" fill-rule="evenodd"/><path fill="#000000" d="M 28.132812 17.085938 L 26.941406 17.085938 C 26.117188 17.085938 25.445312 17.753906 25.445312 18.578125 C 25.445312 19.402344 26.117188 20.070312 26.941406 20.070312 L 28.132812 20.070312 C 28.957031 20.070312 29.628906 19.402344 29.628906 18.578125 C 29.628906 17.753906 28.957031 17.085938 28.132812 17.085938 Z M 28.132812 17.679688 C 28.628906 17.679688 29.03125 18.082031 29.03125 18.578125 C 29.03125 19.070312 28.628906 19.472656 28.132812 19.472656 L 26.941406 19.472656 C 26.445312 19.472656 26.042969 19.070312 26.042969 18.578125 C 26.042969 18.082031 26.445312 17.679688 26.941406 17.679688 L 28.132812 17.679688 " fill-opacity="1" fill-rule="evenodd"/><path fill="#ffe07d" d="M 9.019531 19.773438 L 10.214844 19.773438 C 10.875 19.773438 11.410156 19.238281 11.410156 18.578125 C 11.410156 17.917969 10.875 17.382812 10.214844 17.382812 L 9.019531 17.382812 C 8.359375 17.382812 7.824219 17.917969 7.824219 18.578125 C 7.824219 19.238281 8.359375 19.773438 9.019531 19.773438 " fill-opacity="1" fill-rule="evenodd"/><path fill="#000000" d="M 9.019531 20.070312 L 10.214844 20.070312 C 11.039062 20.070312 11.707031 19.402344 11.707031 18.578125 C 11.707031 17.753906 11.039062 17.085938 10.214844 17.085938 L 9.019531 17.085938 C 8.195312 17.085938 7.527344 17.753906 7.527344 18.578125 C 7.527344 19.402344 8.195312 20.070312 9.019531 20.070312 Z M 9.019531 19.472656 C 8.527344 19.472656 8.125 19.070312 8.125 18.578125 C 8.125 18.082031 8.527344 17.679688 9.019531 17.679688 L 10.214844 17.679688 C 10.710938 17.679688 11.109375 18.082031 11.109375 18.578125 C 11.109375 19.070312 10.710938 19.472656 10.214844 19.472656 L 9.019531 19.472656 " fill-opacity="1" fill-rule="evenodd"/><path fill="#ffe07d" d="M 24.488281 10.976562 L 23.644531 11.820312 C 23.179688 12.285156 23.179688 13.042969 23.644531 13.507812 C 24.113281 13.972656 24.867188 13.972656 25.335938 13.507812 L 26.179688 12.664062 C 26.644531 12.199219 26.644531 11.441406 26.179688 10.976562 C 25.710938 10.507812 24.957031 10.507812 24.488281 10.976562 " fill-opacity="1" fill-rule="evenodd"/><path fill="#000000" d="M 24.28125 10.761719 L 23.433594 11.609375 C 22.851562 12.191406 22.851562 13.136719 23.433594 13.71875 C 24.015625 14.304688 24.964844 14.304688 25.546875 13.71875 L 26.390625 12.875 C 26.972656 12.292969 26.972656 11.347656 26.390625 10.761719 C 25.808594 10.179688 24.863281 10.179688 24.28125 10.761719 Z M 24.703125 11.1875 C 25.050781 10.835938 25.617188 10.835938 25.96875 11.1875 C 26.320312 11.535156 26.320312 12.101562 25.96875 12.453125 L 25.125 13.296875 C 24.773438 13.648438 24.203125 13.648438 23.855469 13.296875 C 23.507812 12.949219 23.507812 12.378906 23.855469 12.03125 L 24.703125 11.1875 " fill-opacity="1" fill-rule="evenodd"/><path fill="#ffe07d" d="M 12.664062 26.179688 L 13.507812 25.335938 C 13.972656 24.867188 13.972656 24.113281 13.507812 23.644531 C 13.042969 23.179688 12.285156 23.179688 11.820312 23.644531 L 10.976562 24.488281 C 10.507812 24.957031 10.507812 25.710938 10.976562 26.179688 C 11.441406 26.644531 12.199219 26.644531 12.664062 26.179688 " fill-opacity="1" fill-rule="evenodd"/><path fill="#000000" d="M 12.875 26.390625 L 13.71875 25.546875 C 14.304688 24.964844 14.304688 24.015625 13.71875 23.433594 C 13.136719 22.851562 12.191406 22.851562 11.609375 23.433594 L 10.761719 24.28125 C 10.179688 24.863281 10.179688 25.808594 10.761719 26.390625 C 11.347656 26.972656 12.292969 26.972656 12.875 26.390625 Z M 12.453125 25.96875 C 12.101562 26.320312 11.535156 26.320312 11.1875 25.96875 C 10.835938 25.617188 10.835938 25.050781 11.1875 24.703125 L 12.03125 23.855469 C 12.378906 23.507812 12.949219 23.507812 13.296875 23.855469 C 13.648438 24.203125 13.648438 24.773438 13.296875 25.125 L 12.453125 25.96875 " fill-opacity="1" fill-rule="evenodd"/><path fill="#ffe07d" d="M 26.179688 24.488281 L 25.335938 23.644531 C 24.867188 23.179688 24.113281 23.179688 23.644531 23.644531 C 23.179688 24.113281 23.179688 24.867188 23.644531 25.335938 L 24.488281 26.179688 C 24.957031 26.644531 25.710938 26.644531 26.179688 26.179688 C 26.644531 25.710938 26.644531 24.957031 26.179688 24.488281 " fill-opacity="1" fill-rule="evenodd"/><path fill="#000000" d="M 26.390625 24.28125 L 25.546875 23.433594 C 24.964844 22.851562 24.015625 22.851562 23.433594 23.433594 C 22.851562 24.015625 22.851562 24.964844 23.433594 25.546875 L 24.28125 26.390625 C 24.863281 26.972656 25.808594 26.972656 26.390625 26.390625 C 26.972656 25.808594 26.972656 24.863281 26.390625 24.28125 Z M 25.96875 24.703125 C 26.320312 25.050781 26.320312 25.617188 25.96875 25.96875 C 25.617188 26.320312 25.050781 26.320312 24.703125 25.96875 L 23.855469 25.125 C 23.507812 24.773438 23.507812 24.203125 23.855469 23.855469 C 24.203125 23.507812 24.773438 23.507812 25.125 23.855469 L 25.96875 24.703125 " fill-opacity="1" fill-rule="evenodd"/><path fill="#ffe07d" d="M 10.976562 12.664062 L 11.820312 13.507812 C 12.285156 13.972656 13.042969 13.972656 13.507812 13.507812 C 13.972656 13.042969 13.972656 12.285156 13.507812 11.820312 L 12.664062 10.976562 C 12.199219 10.507812 11.441406 10.507812 10.976562 10.976562 C 10.507812 11.441406 10.507812 12.199219 10.976562 12.664062 " fill-opacity="1" fill-rule="evenodd"/><path fill="#000000" d="M 10.761719 12.875 L 11.609375 13.71875 C 12.191406 14.304688 13.136719 14.304688 13.71875 13.71875 C 14.304688 13.136719 14.304688 12.191406 13.71875 11.609375 L 12.875 10.761719 C 12.292969 10.179688 11.347656 10.179688 10.761719 10.761719 C 10.179688 11.347656 10.179688 12.292969 10.761719 12.875 Z M 11.1875 12.453125 C 10.835938 12.101562 10.835938 11.535156 11.1875 11.1875 C 11.535156 10.835938 12.101562 10.835938 12.453125 11.1875 L 13.296875 12.03125 C 13.648438 12.378906 13.648438 12.949219 13.296875 13.296875 C 12.949219 13.648438 12.378906 13.648438 12.03125 13.296875 L 11.1875 12.453125 " fill-opacity="1" fill-rule="evenodd"/></svg>