<svg xmlns="http://www.w3.org/2000/svg" xmlns:xlink="http://www.w3.org/1999/xlink" width="50" zoomAndPan="magnify" viewBox="0 0 37.5 37.499999" height="50" preserveAspectRatio="xMidYMid meet" version="1.0"><defs><clipPath id="6e7f0a5de4"><path d="M 31 4.417969 L 33 4.417969 L 33 6 L 31 6 Z M 31 4.417969 " clip-rule="nonzero"/></clipPath><clipPath id="489039196c"><path d="M 4 31 L 6 31 L 6 32.542969 L 4 32.542969 Z M 4 31 " clip-rule="nonzero"/></clipPath></defs><path fill="#5271ff" d="M 35.890625 17.839844 L 29.269531 11.21875 C 29.089844 11.039062 28.84375 10.9375 28.589844 10.9375 L 23.175781 10.9375 C 22.789062 10.9375 22.4375 11.167969 22.289062 11.527344 C 22.140625 11.886719 22.222656 12.296875 22.496094 12.570312 L 28.445312 18.515625 L 22.496094 24.464844 C 22.222656 24.738281 22.140625 25.148438 22.289062 25.507812 C 22.4375 25.863281 22.789062 26.097656 23.175781 26.097656 L 28.589844 26.097656 C 28.84375 26.097656 29.089844 25.996094 29.269531 25.816406 L 35.890625 19.195312 C 36.070312 19.015625 36.171875 18.773438 36.171875 18.515625 C 36.171875 18.261719 36.070312 18.019531 35.890625 17.839844 Z M 35.890625 17.839844 " fill-opacity="1" fill-rule="nonzero"/><path fill="#004aad" d="M 30.917969 19.195312 C 31.097656 19.015625 31.199219 18.773438 31.199219 18.515625 C 31.199219 18.261719 31.097656 18.019531 30.917969 17.839844 L 24.292969 11.21875 C 24.113281 11.039062 23.871094 10.9375 23.617188 10.9375 L 23.175781 10.9375 C 22.789062 10.9375 22.4375 11.167969 22.289062 11.527344 C 22.140625 11.886719 22.222656 12.296875 22.496094 12.570312 L 28.445312 18.515625 L 22.496094 24.464844 C 22.222656 24.738281 22.140625 25.148438 22.289062 25.507812 C 22.4375 25.863281 22.789062 26.097656 23.175781 26.097656 L 23.617188 26.097656 C 23.871094 26.097656 24.113281 25.996094 24.292969 25.816406 Z M 30.917969 19.195312 " fill-opacity="1" fill-rule="nonzero"/><path fill="#5271ff" d="M 14.386719 11.527344 C 14.242188 11.167969 13.890625 10.9375 13.503906 10.9375 L 8.085938 10.9375 C 7.832031 10.9375 7.589844 11.039062 7.410156 11.21875 L 0.785156 17.839844 C 0.605469 18.019531 0.503906 18.261719 0.503906 18.515625 C 0.503906 18.773438 0.605469 19.015625 0.785156 19.195312 L 7.410156 25.816406 C 7.589844 25.996094 7.832031 26.097656 8.085938 26.097656 L 13.503906 26.097656 C 13.890625 26.097656 14.242188 25.863281 14.386719 25.507812 C 14.535156 25.148438 14.453125 24.738281 14.179688 24.464844 L 8.234375 18.515625 L 14.179688 12.570312 C 14.453125 12.296875 14.535156 11.886719 14.386719 11.527344 Z M 14.386719 11.527344 " fill-opacity="1" fill-rule="nonzero"/><path fill="#004aad" d="M 14.386719 25.507812 C 14.535156 25.148438 14.453125 24.738281 14.179688 24.464844 L 8.234375 18.515625 L 14.179688 12.570312 C 14.453125 12.296875 14.535156 11.886719 14.386719 11.527344 C 14.242188 11.167969 13.890625 10.9375 13.503906 10.9375 L 13.0625 10.9375 C 12.808594 10.9375 12.5625 11.039062 12.382812 11.21875 L 5.761719 17.839844 C 5.582031 18.019531 5.480469 18.261719 5.480469 18.515625 C 5.480469 18.773438 5.582031 19.015625 5.761719 19.195312 L 12.382812 25.816406 C 12.5625 25.996094 12.808594 26.097656 13.0625 26.097656 L 13.503906 26.097656 C 13.890625 26.097656 14.242188 25.863281 14.386719 25.507812 Z M 14.386719 25.507812 " fill-opacity="1" fill-rule="nonzero"/><path stroke-linecap="round" transform="matrix(0.284271, 0, 0, 0.284271, -0.67079, -0.670791)" fill="none" stroke-linejoin="round" d="M 129.878838 65.11615 L 106.573614 41.824667 C 105.941515 41.192567 105.089555 40.835294 104.196371 40.835294 L 85.137205 40.835294 C 83.776817 40.835294 82.553842 41.64603 82.031673 42.910228 C 81.509504 44.174427 81.798072 45.617262 82.759962 46.579152 L 103.674202 67.493393 L 82.759962 88.421374 C 81.798072 89.383264 81.509504 90.8261 82.031673 92.090298 C 82.553842 93.340755 83.776817 94.165233 85.137205 94.165233 L 104.196371 94.165233 C 105.089555 94.165233 105.941515 93.807959 106.573614 93.17586 L 129.878838 69.884377 C 130.510938 69.252277 130.868211 68.400318 130.868211 67.493393 C 130.868211 66.600209 130.510938 65.748249 129.878838 65.11615 Z M 129.878838 65.11615 " stroke="#33363a" stroke-width="3" stroke-opacity="1" stroke-miterlimit="10"/><path stroke-linecap="round" transform="matrix(0.284271, 0, 0, 0.284271, -0.67079, -0.670791)" fill="none" stroke-linejoin="round" d="M 108.676031 62.505305 L 87.748049 83.419545 " stroke="#33363a" stroke-width="3" stroke-opacity="1" stroke-miterlimit="10"/><path stroke-linecap="round" transform="matrix(0.284271, 0, 0, 0.284271, -0.67079, -0.670791)" fill="none" stroke-linejoin="round" d="M 52.968849 42.910228 C 52.460422 41.64603 51.223706 40.835294 49.863318 40.835294 L 30.804152 40.835294 C 29.910968 40.835294 29.059008 41.192567 28.426909 41.824667 L 5.121684 65.11615 C 4.489585 65.748249 4.132312 66.600209 4.132312 67.493393 C 4.132312 68.400318 4.489585 69.252277 5.121684 69.884377 L 28.426909 93.17586 C 29.059008 93.807959 29.910968 94.165233 30.804152 94.165233 L 49.863318 94.165233 C 51.223706 94.165233 52.460422 93.340755 52.968849 92.090298 C 53.491018 90.8261 53.202451 89.383264 52.240561 88.421374 L 31.326321 67.493393 L 52.240561 46.579152 C 53.202451 45.617262 53.491018 44.174427 52.968849 42.910228 Z M 52.968849 42.910228 " stroke="#33363a" stroke-width="3" stroke-opacity="1" stroke-miterlimit="10"/><path stroke-linecap="round" transform="matrix(0.284271, 0, 0, 0.284271, -0.67079, -0.670791)" fill="none" stroke-linejoin="round" d="M 26.324492 72.495221 L 47.252473 51.580981 " stroke="#33363a" stroke-width="3" stroke-opacity="1" stroke-miterlimit="10"/><path stroke-linecap="round" transform="matrix(0.284271, 0, 0, 0.284271, -0.67079, -0.670791)" fill="none" stroke-linejoin="round" d="M 57.03627 77.964254 L 77.964252 57.036272 " stroke="#33363a" stroke-width="3" stroke-opacity="1" stroke-miterlimit="10"/><path stroke-linecap="round" transform="matrix(0.284271, 0, 0, 0.284271, -0.67079, -0.670791)" fill="none" stroke-linejoin="round" d="M 101.393148 33.607376 L 103.784132 31.216392 " stroke="#33363a" stroke-width="3" stroke-opacity="1" stroke-miterlimit="10"/><path stroke-linecap="round" transform="matrix(0.284271, 0, 0, 0.284271, -0.67079, -0.670791)" fill="none" stroke-linejoin="round" d="M 108.195086 26.805439 L 108.442429 26.558096 " stroke="#33363a" stroke-width="3" stroke-opacity="1" stroke-miterlimit="10"/><path stroke-linecap="round" transform="matrix(0.284271, 0, 0, 0.284271, -0.67079, -0.670791)" fill="none" stroke-linejoin="round" d="M 111.685373 23.315152 L 111.932716 23.067808 " stroke="#33363a" stroke-width="3" stroke-opacity="1" stroke-miterlimit="10"/><g clip-path="url(#6e7f0a5de4)"><path stroke-linecap="round" transform="matrix(0.284271, 0, 0, 0.284271, -0.67079, -0.670791)" fill="none" stroke-linejoin="round" d="M 115.17566 19.838606 L 115.423003 19.577521 " stroke="#33363a" stroke-width="3" stroke-opacity="1" stroke-miterlimit="10"/></g><path stroke-linecap="round" transform="matrix(0.284271, 0, 0, 0.284271, -0.67079, -0.670791)" fill="none" stroke-linejoin="round" d="M 33.593633 101.39315 L 31.21639 103.784134 " stroke="#33363a" stroke-width="3" stroke-opacity="1" stroke-miterlimit="10"/><path stroke-linecap="round" transform="matrix(0.284271, 0, 0, 0.284271, -0.67079, -0.670791)" fill="none" stroke-linejoin="round" d="M 26.805437 108.195088 L 26.558094 108.442431 " stroke="#33363a" stroke-width="3" stroke-opacity="1" stroke-miterlimit="10"/><path stroke-linecap="round" transform="matrix(0.284271, 0, 0, 0.284271, -0.67079, -0.670791)" fill="none" stroke-linejoin="round" d="M 23.31515 111.685375 L 23.067806 111.932718 " stroke="#33363a" stroke-width="3" stroke-opacity="1" stroke-miterlimit="10"/><g clip-path="url(#489039196c)"><path stroke-linecap="round" transform="matrix(0.284271, 0, 0, 0.284271, -0.67079, -0.670791)" fill="none" stroke-linejoin="round" d="M 19.824862 115.175662 L 19.577519 115.423005 " stroke="#33363a" stroke-width="3" stroke-opacity="1" stroke-miterlimit="10"/></g></svg>